<svg width="175" height="63" viewBox="0 0 175 63" fill="none" xmlns="http://www.w3.org/2000/svg">
<path fill-rule="evenodd" clip-rule="evenodd" d="M35.0682 45.6224C34.8489 45.1036 33.9917 43.587 26.3361 49.8528C26.3361 49.8528 22.8671 51.2297 19.9365 50.8904C19.9365 50.8904 17.4245 49.1344 15.5903 49.3539C13.7362 49.5734 24.5218 46.8596 22.6677 44.2854C21.2124 42.27 11.9021 45.7621 8.69229 47.1589C7.6556 47.5979 2.87085 53.2451 2.1332 53.7041C1.37562 54.163 0 54.8614 0 54.8614C0 54.8614 5.00405 56.9966 7.0575 62.9431C7.0575 62.9431 7.71541 62.125 6.85814 59.7104C5.98094 57.276 13.2577 55.7594 16.8264 56.0787C20.4149 56.378 24.2427 55.8392 28.2898 52.826C32.3369 49.8129 35.3473 46.0813 35.0682 45.6224Z" fill="white"/>
<path d="M31.8082 16.4283C33.5478 16.4283 34.9581 14.9989 34.9581 13.2356C34.9581 11.4723 33.5478 10.0428 31.8082 10.0428C30.0685 10.0428 28.6582 11.4723 28.6582 13.2356C28.6582 14.9989 30.0685 16.4283 31.8082 16.4283Z" fill="white"/>
<path fill-rule="evenodd" clip-rule="evenodd" d="M38.3225 15.0512C42.1703 15.0512 45.3003 18.224 45.3003 22.1351C45.3003 26.0462 42.1703 29.2191 38.3225 29.2191C36.8672 29.2191 35.5115 28.7801 34.415 28.0018C34.6742 27.5029 34.8137 26.9243 34.8137 26.3256C34.8137 24.3501 33.2786 22.7537 31.3448 22.6938C31.3448 22.5143 31.3248 22.3147 31.3248 22.1351C31.3248 18.224 34.4549 15.0512 38.3225 15.0512Z" fill="white"/>
<path d="M31.2087 29.5177C32.9484 29.5177 34.3586 28.0883 34.3586 26.325C34.3586 24.5616 32.9484 23.1322 31.2087 23.1322C29.469 23.1322 28.0587 24.5616 28.0587 26.325C28.0587 28.0883 29.469 29.5177 31.2087 29.5177Z" fill="white"/>
<path fill-rule="evenodd" clip-rule="evenodd" d="M13.4673 8.42645C14.0853 8.42645 14.6634 8.50626 15.2416 8.62599C15.4609 9.94301 16.059 11.1203 16.9163 12.0582C16.1188 13.1557 15.6403 14.5126 15.6403 15.9893C15.6403 16.7276 15.74 17.426 15.9593 18.0646C15.8596 18.0646 15.74 18.0646 15.6204 18.0646C12.59 18.0646 10.1179 20.5589 10.1179 23.6519C10.1179 23.7717 10.1179 23.8714 10.1179 23.9912C7.3667 22.6941 5.43286 19.8605 5.43286 16.568C5.43286 12.0782 9.04136 8.42645 13.4673 8.42645Z" fill="white"/>
<path fill-rule="evenodd" clip-rule="evenodd" d="M21.9182 0.943115C25.447 0.943115 28.2979 3.83656 28.2979 7.40846C28.2979 8.96493 27.7596 10.3817 26.8425 11.4992C25.6663 10.2221 23.9916 9.42389 22.1176 9.42389C20.1439 9.42389 18.3695 10.3019 17.1933 11.7187C16.1765 10.5813 15.5585 9.0647 15.5585 7.40846C15.5585 3.83656 18.4094 0.943115 21.9182 0.943115Z" fill="white"/>
<path fill-rule="evenodd" clip-rule="evenodd" d="M22.1058 9.86245C25.4551 9.86245 28.1665 12.5963 28.1665 15.9886C28.1665 19.3809 25.4551 22.1346 22.1058 22.1346C21.6871 22.1346 21.2884 22.0947 20.8896 22.0149C20.2716 19.9795 18.5371 18.443 16.4239 18.1237C16.1846 17.4652 16.0451 16.7468 16.0451 15.9886C16.0451 12.5963 18.7564 9.86245 22.1058 9.86245Z" fill="white"/>
<path d="M15.6362 28.7992C18.4329 28.7992 20.7001 26.4942 20.7001 23.6509C20.7001 20.8076 18.4329 18.5026 15.6362 18.5026C12.8395 18.5026 10.5724 20.8076 10.5724 23.6509C10.5724 26.4942 12.8395 28.7992 15.6362 28.7992Z" fill="white"/>
<path fill-rule="evenodd" clip-rule="evenodd" d="M25.2983 23.4323H22.7465L22.8661 29.0396L20.075 27.3435L19.3373 28.3811L22.587 30.6959C22.4903 31.5686 22.3872 32.3677 22.2765 33.1021L22.2544 33.0503C21.1778 39.1964 18.925 41.6309 16.5725 43.786C25.4442 41.9302 24.0486 45.5021 21.3373 47.5973C23.7466 51.3163 26.8849 48.7955 29.4523 46.7334C30.4116 45.9629 31.2912 45.2564 32.0232 44.9633C27.9782 44.4523 26.5054 38.618 25.6429 35.201L25.6037 35.0458L25.5772 35.0832C25.5708 35.037 25.5643 34.9913 25.5575 34.9462C25.1986 32.4918 25.1787 29.7979 25.3581 27.0641L30.2426 21.4967L29.1461 20.6586L25.2983 24.8691V23.4323ZM25.5772 35.0832L24.0487 37.2408L22.2765 33.1021C21.3831 39.0336 20.0044 40.7397 17.6627 42.8882C26.5344 41.0125 26.4148 43.6665 23.7034 45.7617C25.8215 49.0311 26.3063 48.2464 27.0917 46.9752C27.5335 46.2602 28.0703 45.3913 29.0464 45.0034C26.1244 44.6494 25.9309 40.8282 25.7664 37.5791C25.7206 36.6736 25.677 35.8125 25.5772 35.0832Z" fill="white"/>
<path d="M56.0543 15.6257H62.5695C65.5383 15.6257 67.691 16.0472 69.0274 16.8901C70.3734 17.7235 71.0464 19.0541 71.0464 20.882C71.0464 22.1227 70.7505 23.1408 70.1586 23.9363C69.5763 24.7319 68.7983 25.2101 67.8246 25.3711V25.5132C69.1515 25.8068 70.1061 26.3561 70.6884 27.1611C71.2803 27.9661 71.5762 29.0363 71.5762 30.3717C71.5762 32.2658 70.8841 33.7433 69.4999 34.804C68.1253 35.8647 66.2543 36.3951 63.8868 36.3951H56.0543V15.6257ZM60.4932 23.8511H63.0707C64.2735 23.8511 65.1422 23.6664 65.6767 23.297C66.2209 22.9277 66.4929 22.3168 66.4929 21.4644C66.4929 20.6689 66.197 20.1007 65.6051 19.7597C65.0228 19.4093 64.0969 19.2341 62.8272 19.2341H60.4932V23.8511ZM60.4932 27.3458V32.7583H63.3857C64.6076 32.7583 65.5097 32.5263 66.092 32.0622C66.6743 31.5982 66.9655 30.8879 66.9655 29.9313C66.9655 28.2076 65.7245 27.3458 63.2425 27.3458H60.4932Z" fill="white"/>
<path d="M82.0435 23.297C81.1175 23.297 80.392 23.5906 79.867 24.1778C79.3419 24.7555 79.0412 25.5795 78.9649 26.6497H85.0934C85.0743 25.5795 84.7927 24.7555 84.2486 24.1778C83.7045 23.5906 82.9694 23.297 82.0435 23.297ZM82.6592 36.6792C80.0817 36.6792 78.0675 35.9737 76.6165 34.5625C75.1655 33.1514 74.44 31.153 74.44 28.5675C74.44 25.9062 75.1082 23.8511 76.4447 22.402C77.7907 20.9436 79.6474 20.2143 82.0148 20.2143C84.2772 20.2143 86.0385 20.8536 87.2986 22.1321C88.5586 23.4107 89.1887 25.177 89.1887 27.431V29.5335H78.8646C78.9124 30.7647 79.2799 31.726 79.9672 32.4174C80.6545 33.1087 81.6187 33.4544 82.8596 33.4544C83.8238 33.4544 84.7354 33.355 85.5946 33.1561C86.4537 32.9572 87.3511 32.6399 88.2866 32.2043V35.5569C87.5229 35.9358 86.7067 36.2152 85.838 36.3951C84.9693 36.5845 83.9097 36.6792 82.6592 36.6792Z" fill="white"/>
<path d="M101.675 20.2143C102.267 20.2143 102.758 20.2569 103.15 20.3422L102.82 24.4051C102.467 24.3104 102.038 24.2631 101.532 24.2631C100.138 24.2631 99.0498 24.6182 98.267 25.3285C97.4938 26.0388 97.1071 27.0333 97.1071 28.3118V36.3951H92.7398V20.5126H96.0475L96.6919 23.1834H96.9067C97.4031 22.2931 98.0713 21.5781 98.9114 21.0383C99.761 20.489 100.682 20.2143 101.675 20.2143Z" fill="white"/>
<path d="M117.225 31.6787C117.225 33.3076 116.653 34.5483 115.507 35.4007C114.371 36.253 112.667 36.6792 110.395 36.6792C109.231 36.6792 108.238 36.5987 107.417 36.4377C106.596 36.2862 105.827 36.0589 105.112 35.7558V32.1759C105.923 32.5547 106.835 32.872 107.846 33.1277C108.868 33.3834 109.765 33.5113 110.538 33.5113C112.123 33.5113 112.915 33.0567 112.915 32.1475C112.915 31.8065 112.81 31.5319 112.6 31.3235C112.39 31.1057 112.028 30.8642 111.512 30.599C110.997 30.3243 110.309 30.0071 109.45 29.6472C108.219 29.1358 107.312 28.6622 106.73 28.2266C106.157 27.7909 105.737 27.2937 105.469 26.7349C105.212 26.1667 105.083 25.4706 105.083 24.6466C105.083 23.2355 105.632 22.1463 106.73 21.3792C107.837 20.6026 109.402 20.2143 111.426 20.2143C113.355 20.2143 115.23 20.631 117.054 21.4644L115.736 24.5898C114.934 24.2488 114.185 23.9695 113.488 23.7516C112.791 23.5338 112.08 23.4249 111.355 23.4249C110.066 23.4249 109.422 23.7706 109.422 24.4619C109.422 24.8502 109.627 25.1865 110.037 25.4706C110.457 25.7547 111.369 26.1761 112.772 26.7349C114.023 27.2369 114.939 27.7057 115.522 28.1413C116.104 28.577 116.533 29.0789 116.81 29.6472C117.087 30.2154 117.225 30.8926 117.225 31.6787Z" fill="white"/>
<path d="M127.263 23.297C126.337 23.297 125.612 23.5906 125.087 24.1778C124.562 24.7555 124.261 25.5795 124.185 26.6497H130.313C130.294 25.5795 130.012 24.7555 129.468 24.1778C128.924 23.5906 128.189 23.297 127.263 23.297ZM127.879 36.6792C125.301 36.6792 123.287 35.9737 121.836 34.5625C120.385 33.1514 119.66 31.153 119.66 28.5675C119.66 25.9062 120.328 23.8511 121.664 22.402C123.01 20.9436 124.867 20.2143 127.235 20.2143C129.497 20.2143 131.258 20.8536 132.518 22.1321C133.778 23.4107 134.408 25.177 134.408 27.431V29.5335H124.084C124.132 30.7647 124.5 31.726 125.187 32.4174C125.874 33.1087 126.838 33.4544 128.079 33.4544C129.043 33.4544 129.955 33.355 130.814 33.1561C131.673 32.9572 132.571 32.6399 133.506 32.2043V35.5569C132.743 35.9358 131.926 36.2152 131.058 36.3951C130.189 36.5845 129.129 36.6792 127.879 36.6792Z" fill="white"/>
<path d="M152.293 36.3951H147.926V27.1185C147.926 25.9725 147.73 25.1154 147.339 24.5472C146.957 23.9695 146.351 23.6806 145.52 23.6806C144.403 23.6806 143.592 24.0878 143.086 24.9023C142.58 25.7168 142.327 27.0569 142.327 28.9227V36.3951H137.96V20.5126H141.296L141.883 22.5441H142.126C142.556 21.8149 143.176 21.2466 143.988 20.8394C144.799 20.4227 145.73 20.2143 146.78 20.2143C149.176 20.2143 150.799 20.9909 151.649 22.5441H152.035C152.465 21.8054 153.095 21.2324 153.925 20.8252C154.765 20.4179 155.71 20.2143 156.761 20.2143C158.574 20.2143 159.944 20.6784 160.87 21.6065C161.806 22.5252 162.273 24.0026 162.273 26.0388V36.3951H157.892V27.1185C157.892 25.9725 157.696 25.1154 157.305 24.5472C156.923 23.9695 156.317 23.6806 155.486 23.6806C154.417 23.6806 153.615 24.0594 153.08 24.8171C152.555 25.5748 152.293 26.7775 152.293 28.4255V36.3951Z" fill="white"/>
<path d="M166.583 16.4071C166.583 14.9959 167.376 14.2903 168.96 14.2903C170.545 14.2903 171.337 14.9959 171.337 16.4071C171.337 17.0795 171.137 17.6051 170.736 17.9839C170.345 18.3533 169.753 18.538 168.96 18.538C167.376 18.538 166.583 17.8277 166.583 16.4071ZM171.137 36.3951H166.77V20.5126H171.137V36.3951Z" fill="white"/>
<path d="M118.428 40.9848H119.101V46.7253C119.101 46.8988 119.135 47.0168 119.203 47.0793C119.272 47.1419 119.391 47.1732 119.561 47.1732C119.584 47.1732 119.617 47.1717 119.66 47.1689C119.705 47.166 119.75 47.1618 119.796 47.1561L119.894 47.5485C119.843 47.5712 119.786 47.594 119.723 47.6167C119.661 47.6395 119.596 47.6594 119.527 47.6764C119.459 47.6963 119.391 47.7105 119.323 47.7191C119.255 47.7304 119.191 47.7361 119.131 47.7361C118.909 47.7361 118.736 47.665 118.611 47.5229C118.489 47.3807 118.428 47.1689 118.428 46.8874V40.9848Z" fill="white"/>
<path d="M120.67 43.0618H121.343V47.6679H120.67V43.0618ZM120.602 41.5691C120.602 41.4667 120.639 41.3729 120.712 41.2876C120.786 41.2023 120.884 41.1596 121.007 41.1596C121.126 41.1596 121.221 41.2023 121.292 41.2876C121.366 41.3729 121.403 41.4667 121.403 41.5691C121.403 41.6857 121.363 41.7837 121.284 41.8634C121.204 41.9401 121.112 41.9785 121.007 41.9785C120.899 41.9785 120.803 41.9401 120.721 41.8634C120.641 41.7837 120.602 41.6857 120.602 41.5691Z" fill="white"/>
<path d="M122.737 43.6546C122.737 43.4698 122.724 43.2722 122.699 43.0618H123.351C123.377 43.1869 123.394 43.3234 123.402 43.4712C123.598 43.3433 123.837 43.231 124.118 43.1343C124.403 43.0376 124.685 42.9893 124.967 42.9893C125.402 42.9893 125.745 43.1158 125.998 43.3689C126.254 43.6219 126.382 43.9816 126.382 44.4479V47.6679H125.708V44.5033C125.708 44.2275 125.636 43.9986 125.491 43.8167C125.346 43.6319 125.141 43.5395 124.877 43.5395C124.613 43.5395 124.351 43.5793 124.093 43.6589C123.834 43.7385 123.607 43.8408 123.411 43.9659V47.6679H122.737V43.6546Z" fill="white"/>
<path d="M129.528 47.1646C129.804 47.1646 130.028 47.1419 130.201 47.0964C130.378 47.0481 130.574 46.9357 130.79 46.7595V43.7484C130.466 43.6347 130.112 43.5778 129.728 43.5778C129.194 43.5778 128.809 43.7612 128.573 44.128C128.34 44.492 128.223 44.9042 128.223 45.3648C128.223 45.8567 128.34 46.2804 128.573 46.6358C128.809 46.9883 129.127 47.1646 129.528 47.1646ZM129.609 42.9893C130.004 42.9893 130.398 43.0675 130.79 43.2239V40.9848H131.463V46.2136C131.463 46.5917 131.48 46.8789 131.514 47.0751C131.548 47.2684 131.597 47.466 131.659 47.6679H131.028C130.991 47.6196 130.957 47.5627 130.926 47.4973C130.895 47.4291 130.869 47.358 130.849 47.284C130.645 47.4177 130.436 47.5271 130.223 47.6124C130.012 47.6949 129.745 47.7361 129.421 47.7361C128.844 47.7361 128.383 47.5186 128.036 47.0836C127.689 46.6486 127.516 46.0899 127.516 45.4075C127.516 44.7166 127.706 44.1408 128.087 43.6802C128.471 43.2196 128.978 42.9893 129.609 42.9893Z" fill="white"/>
<path d="M133.488 43.0618V46.188C133.488 46.4979 133.565 46.7339 133.718 46.8959C133.875 47.058 134.078 47.139 134.328 47.139C134.652 47.139 134.937 47.095 135.185 47.0068C135.432 46.9158 135.629 46.7978 135.777 46.6528V43.0618H136.451V47.0665C136.451 47.2513 136.471 47.4518 136.51 47.6679H135.824C135.801 47.5058 135.784 47.3466 135.773 47.1902C135.619 47.3068 135.433 47.412 135.214 47.5058C134.996 47.5996 134.811 47.6622 134.66 47.6935C134.51 47.7276 134.37 47.7447 134.243 47.7447C133.748 47.7447 133.386 47.6096 133.156 47.3395C132.928 47.0665 132.815 46.7111 132.815 46.2733V43.0618H133.488Z" fill="white"/>
<path d="M137.913 43.6546C137.913 43.4698 137.9 43.2722 137.874 43.0618H138.527C138.552 43.1869 138.569 43.3234 138.578 43.4712C138.774 43.3433 139.013 43.231 139.294 43.1343C139.578 43.0376 139.861 42.9893 140.142 42.9893C140.577 42.9893 140.921 43.1158 141.174 43.3689C141.43 43.6219 141.557 43.9816 141.557 44.4479V47.6679H140.884V44.5033C140.884 44.2275 140.811 43.9986 140.667 43.8167C140.522 43.6319 140.317 43.5395 140.053 43.5395C139.788 43.5395 139.527 43.5793 139.268 43.6589C139.01 43.7385 138.782 43.8408 138.586 43.9659V47.6679H137.913V43.6546Z" fill="white"/>
<path d="M144.639 45.7359C144.816 45.7359 144.965 45.7075 145.087 45.6506C145.212 45.5909 145.314 45.507 145.394 45.399C145.474 45.2909 145.53 45.1615 145.565 45.0109C145.601 44.8602 145.62 44.6924 145.62 44.5076C145.62 44.3683 145.6 44.2346 145.56 44.1067C145.52 43.9759 145.459 43.8622 145.377 43.7655C145.297 43.6688 145.195 43.5921 145.07 43.5352C144.945 43.4755 144.797 43.4456 144.627 43.4456C144.419 43.4456 144.247 43.4797 144.111 43.548C143.974 43.6134 143.865 43.7001 143.783 43.8081C143.7 43.9162 143.642 44.0385 143.608 44.1749C143.574 44.3114 143.557 44.4493 143.557 44.5886C143.557 44.7308 143.578 44.8701 143.621 45.0066C143.666 45.1431 143.733 45.2653 143.821 45.3734C143.912 45.4814 144.024 45.5696 144.158 45.6378C144.294 45.7032 144.455 45.7359 144.639 45.7359ZM143.646 47.4802C143.518 47.6196 143.419 47.7589 143.348 47.8982C143.28 48.0375 143.246 48.1726 143.246 48.3034C143.246 48.4768 143.282 48.619 143.356 48.7298C143.43 48.8436 143.525 48.9331 143.642 48.9985C143.759 49.0639 143.889 49.1094 144.034 49.135C144.179 49.1606 144.324 49.1734 144.469 49.1734C144.549 49.1734 144.644 49.1677 144.755 49.1563C144.868 49.1478 144.985 49.1322 145.104 49.1094C145.226 49.0867 145.346 49.0554 145.462 49.0156C145.582 48.9786 145.688 48.9317 145.782 48.8749C145.876 48.818 145.951 48.7498 146.008 48.6701C146.068 48.5934 146.097 48.5038 146.097 48.4015C146.097 48.3019 146.066 48.2124 146.004 48.1328C145.944 48.056 145.863 47.9878 145.761 47.928C145.661 47.8683 145.542 47.8143 145.403 47.766C145.266 47.7176 145.032 47.6622 144.699 47.5996C144.477 47.5655 144.304 47.5428 144.179 47.5314C144.057 47.5172 143.949 47.5072 143.855 47.5016C143.761 47.493 143.692 47.4859 143.646 47.4802ZM146.669 43.6205C146.555 43.6176 146.45 43.6233 146.353 43.6376C146.257 43.6518 146.161 43.6731 146.068 43.7015C146.139 43.8096 146.198 43.9333 146.247 44.0726C146.298 44.2091 146.323 44.3697 146.323 44.5545C146.323 44.8331 146.275 45.0748 146.178 45.2795C146.082 45.4814 145.952 45.6492 145.79 45.7828C145.628 45.9136 145.442 46.0117 145.232 46.0771C145.022 46.1396 144.803 46.1709 144.576 46.1709C144.382 46.1709 144.182 46.1467 143.974 46.0984C143.929 46.1041 143.871 46.1197 143.8 46.1453C143.729 46.1709 143.659 46.205 143.591 46.2477C143.525 46.2903 143.469 46.3401 143.42 46.3969C143.372 46.451 143.348 46.5107 143.348 46.5761C143.348 46.65 143.398 46.7083 143.497 46.7509C143.597 46.7936 143.727 46.8305 143.889 46.8618C144.051 46.8903 144.338 46.9329 144.75 46.9898C145.185 47.0609 145.505 47.1262 145.709 47.186C145.917 47.2428 146.102 47.3196 146.264 47.4163C146.426 47.5129 146.556 47.6309 146.656 47.7702C146.755 47.9124 146.805 48.0858 146.805 48.2906C146.805 48.4867 146.768 48.6559 146.694 48.7981C146.62 48.9403 146.521 49.0611 146.396 49.1606C146.274 49.263 146.131 49.3454 145.969 49.408C145.807 49.4734 145.637 49.5245 145.458 49.5615C145.279 49.5985 145.097 49.6226 144.912 49.634C144.73 49.6482 144.557 49.6553 144.392 49.6553C144.131 49.6553 143.891 49.6326 143.672 49.5871C143.456 49.5416 143.27 49.4705 143.113 49.3738C142.957 49.28 142.835 49.1592 142.747 49.0113C142.659 48.8663 142.615 48.6929 142.615 48.491C142.615 48.383 142.633 48.2749 142.67 48.1669C142.71 48.0617 142.762 47.9607 142.828 47.8641C142.896 47.7674 142.973 47.6778 143.058 47.5954C143.146 47.5129 143.238 47.439 143.335 47.3736C143.258 47.3366 143.183 47.2983 143.109 47.2585C143.035 47.2158 142.968 47.1689 142.909 47.1177C142.852 47.0637 142.805 47.0026 142.768 46.9343C142.731 46.8632 142.713 46.7808 142.713 46.687C142.713 46.5846 142.743 46.4908 142.802 46.4055C142.865 46.3202 142.94 46.2434 143.028 46.1752C143.119 46.1069 143.214 46.0501 143.314 46.0046C143.413 45.9591 143.501 45.9264 143.578 45.9065C143.339 45.77 143.159 45.5966 143.037 45.3862C142.914 45.1729 142.853 44.9071 142.853 44.5886C142.853 44.3299 142.905 44.101 143.007 43.902C143.112 43.7001 143.248 43.5324 143.416 43.3987C143.584 43.2651 143.776 43.1641 143.992 43.0959C144.208 43.0248 144.428 42.9893 144.652 42.9893C144.848 42.9893 145.044 43.0163 145.241 43.0703C145.437 43.1243 145.62 43.2054 145.79 43.3134C146.012 43.2281 146.227 43.1684 146.434 43.1343C146.644 43.1002 146.843 43.0831 147.031 43.0831L146.954 43.629L146.669 43.6205Z" fill="white"/>
<path d="M147.747 43.0618H148.421V47.6679H147.747V43.0618ZM147.679 41.5691C147.679 41.4667 147.716 41.3729 147.79 41.2876C147.864 41.2023 147.962 41.1596 148.084 41.1596C148.203 41.1596 148.298 41.2023 148.369 41.2876C148.443 41.3729 148.48 41.4667 148.48 41.5691C148.48 41.6857 148.44 41.7837 148.361 41.8634C148.281 41.9401 148.189 41.9785 148.084 41.9785C147.976 41.9785 147.881 41.9401 147.798 41.8634C147.719 41.7837 147.679 41.6857 147.679 41.5691Z" fill="white"/>
<path d="M149.776 40.9848H150.45V43.4158C150.603 43.3248 150.805 43.231 151.055 43.1343C151.308 43.0376 151.594 42.9893 151.912 42.9893C152.395 42.9893 152.764 43.1286 153.02 43.4072C153.279 43.6859 153.408 44.0626 153.408 44.5374V47.6679H152.735L152.739 44.5758C152.739 44.2489 152.658 43.9944 152.496 43.8124C152.334 43.6304 152.081 43.5395 151.737 43.5395C151.521 43.5395 151.299 43.5764 151.072 43.6503C150.845 43.7243 150.637 43.811 150.45 43.9105V47.6679H149.776V40.9848Z" fill="white"/>
<path d="M155.305 43.0618V46.188C155.305 46.4979 155.382 46.7339 155.535 46.8959C155.691 47.058 155.895 47.139 156.145 47.139C156.469 47.139 156.754 47.095 157.002 47.0068C157.249 46.9158 157.446 46.7978 157.594 46.6528V43.0618H158.268V47.0665C158.268 47.2513 158.288 47.4518 158.327 47.6679H157.641C157.618 47.5058 157.601 47.3466 157.59 47.1902C157.436 47.3068 157.25 47.412 157.031 47.5058C156.813 47.5996 156.628 47.6622 156.477 47.6935C156.327 47.7276 156.187 47.7447 156.059 47.7447C155.565 47.7447 155.203 47.6096 154.972 47.3395C154.745 47.0665 154.631 46.7111 154.631 46.2733V43.0618H155.305Z" fill="white"/>
<path d="M159.15 43.0618H159.815V41.8975H160.489V43.0618H161.61L161.537 43.6461H160.489V46.3074C160.489 46.5718 160.531 46.7836 160.616 46.9429C160.705 47.1021 160.841 47.1817 161.026 47.1817C161.125 47.1817 161.25 47.1675 161.401 47.139C161.551 47.1078 161.651 47.085 161.699 47.0708L161.75 47.6551C161.693 47.6665 161.573 47.6835 161.388 47.7063C161.206 47.7319 161.063 47.7447 160.957 47.7447C160.597 47.7447 160.315 47.6551 160.113 47.476C159.914 47.2968 159.815 46.9656 159.815 46.4822V43.6461H159.15V43.0618Z" fill="white"/>
<path d="M165.348 45.254C164.962 45.2625 164.629 45.298 164.351 45.3606C164.072 45.4203 163.843 45.5027 163.664 45.6079C163.485 45.7131 163.353 45.8368 163.268 45.979C163.183 46.1211 163.14 46.2775 163.14 46.4481C163.14 46.6898 163.208 46.8675 163.345 46.9812C163.481 47.095 163.67 47.1518 163.912 47.1518C164.042 47.1518 164.172 47.1376 164.299 47.1092C164.43 47.0808 164.557 47.0424 164.679 46.994C164.801 46.9457 164.918 46.8888 165.028 46.8234C165.142 46.7552 165.249 46.6827 165.348 46.6059V45.254ZM162.667 43.6333C162.772 43.5366 162.894 43.4485 163.033 43.3689C163.176 43.2893 163.325 43.221 163.481 43.1641C163.64 43.1073 163.804 43.0646 163.971 43.0362C164.142 43.0049 164.311 42.9893 164.479 42.9893C164.95 42.9893 165.325 43.1073 165.604 43.3433C165.882 43.5793 166.022 43.9077 166.022 44.3285V46.3799C166.022 46.5476 166.027 46.6855 166.039 46.7936C166.05 46.9016 166.07 46.9869 166.098 47.0495C166.13 47.112 166.169 47.1561 166.218 47.1817C166.269 47.2044 166.333 47.2158 166.41 47.2158C166.506 47.2158 166.604 47.2059 166.704 47.186L166.81 47.4973C166.734 47.5712 166.624 47.6309 166.482 47.6764C166.343 47.7219 166.192 47.7447 166.03 47.7447C165.851 47.7447 165.706 47.6821 165.595 47.557C165.487 47.4291 165.418 47.2471 165.386 47.0111C165.145 47.2357 164.881 47.4148 164.594 47.5485C164.309 47.6793 164.004 47.7447 163.677 47.7447C163.498 47.7447 163.33 47.7191 163.174 47.6679C163.021 47.6139 162.887 47.5371 162.773 47.4376C162.66 47.3381 162.57 47.2158 162.505 47.0708C162.442 46.9258 162.411 46.7609 162.411 46.5761C162.411 46.3287 162.458 46.114 162.552 45.9321C162.648 45.7501 162.775 45.5951 162.931 45.4672C163.087 45.3392 163.266 45.2355 163.468 45.1559C163.673 45.0762 163.883 45.0137 164.099 44.9682C164.318 44.9227 164.535 44.8929 164.751 44.8786C164.967 44.8616 165.166 44.8531 165.348 44.8531V44.3796C165.348 44.0783 165.27 43.8593 165.114 43.7228C164.957 43.5864 164.739 43.5181 164.457 43.5181C164.298 43.5181 164.149 43.5366 164.01 43.5736C163.873 43.6105 163.745 43.6575 163.626 43.7143C163.507 43.7712 163.397 43.8337 163.298 43.902C163.198 43.9702 163.109 44.0356 163.029 44.0982L162.667 43.6333Z" fill="white"/>
<path d="M167.693 43.6546C167.693 43.4698 167.68 43.2722 167.654 43.0618H168.306C168.332 43.1869 168.349 43.3234 168.358 43.4712C168.554 43.3433 168.792 43.231 169.074 43.1343C169.358 43.0376 169.641 42.9893 169.922 42.9893C170.357 42.9893 170.701 43.1158 170.954 43.3689C171.209 43.6219 171.337 43.9816 171.337 44.4479V47.6679H170.664V44.5033C170.664 44.2275 170.591 43.9986 170.446 43.8167C170.301 43.6319 170.097 43.5395 169.833 43.5395C169.568 43.5395 169.307 43.5793 169.048 43.6589C168.79 43.7385 168.562 43.8408 168.366 43.9659V47.6679H167.693V43.6546Z" fill="white"/>
<path d="M17.6627 42.8882C26.5344 41.0125 26.4148 43.6665 23.7034 45.7617C25.8215 49.0311 26.3063 48.2464 27.0917 46.9752C27.5335 46.2602 28.0703 45.3913 29.0464 45.0034C26.1244 44.6494 25.9309 40.8282 25.7664 37.5791C25.7206 36.6736 25.677 35.8125 25.5772 35.0832L24.0487 37.2408L22.2765 33.1021C21.3831 39.0336 20.0044 40.7397 17.6627 42.8882Z" fill="white"/>
</svg>
