<svg width="175" height="62" viewBox="0 0 175 62" fill="none" xmlns="http://www.w3.org/2000/svg">
<path fill-rule="evenodd" clip-rule="evenodd" d="M35.0682 44.6793C34.8489 44.1604 33.9917 42.6439 26.3361 48.9097C26.3361 48.9097 22.8671 50.2866 19.9365 49.9473C19.9365 49.9473 17.4245 48.1913 15.5903 48.4108C13.7362 48.6303 24.5218 45.9165 22.6677 43.3423C21.2124 41.3269 11.9021 44.819 8.69229 46.2158C7.6556 46.6548 2.87085 52.302 2.1332 52.7609C1.37562 53.2199 0 53.9183 0 53.9183C0 53.9183 5.00405 56.0535 7.0575 62C7.0575 62 7.71541 61.1818 6.85814 58.7673C5.98094 56.3328 13.2577 54.8163 16.8264 55.1356C20.4149 55.4349 24.2427 54.8961 28.2898 51.8829C32.3369 48.8698 35.3473 45.1382 35.0682 44.6793Z" fill="#005E4E"/>
<path d="M31.8082 15.4852C33.5478 15.4852 34.9581 14.0558 34.9581 12.2925C34.9581 10.5292 33.5478 9.0997 31.8082 9.0997C30.0685 9.0997 28.6582 10.5292 28.6582 12.2925C28.6582 14.0558 30.0685 15.4852 31.8082 15.4852Z" fill="#005E4E"/>
<path fill-rule="evenodd" clip-rule="evenodd" d="M38.3225 14.1081C42.1703 14.1081 45.3003 17.2809 45.3003 21.192C45.3003 25.1031 42.1703 28.2759 38.3225 28.2759C36.8672 28.2759 35.5115 27.8369 34.415 27.0587C34.6742 26.5598 34.8137 25.9811 34.8137 25.3825C34.8137 23.407 33.2786 21.8106 31.3448 21.7507C31.3448 21.5711 31.3248 21.3716 31.3248 21.192C31.3248 17.2809 34.4549 14.1081 38.3225 14.1081Z" fill="#005E4E"/>
<path d="M31.2087 28.5746C32.9484 28.5746 34.3586 27.1452 34.3586 25.3818C34.3586 23.6185 32.9484 22.1891 31.2087 22.1891C29.469 22.1891 28.0587 23.6185 28.0587 25.3818C28.0587 27.1452 29.469 28.5746 31.2087 28.5746Z" fill="#005E4E"/>
<path fill-rule="evenodd" clip-rule="evenodd" d="M13.4673 7.48333C14.0853 7.48333 14.6634 7.56315 15.2416 7.68288C15.4609 8.99989 16.059 10.1772 16.9163 11.1151C16.1188 12.2126 15.6403 13.5695 15.6403 15.0462C15.6403 15.7845 15.74 16.4829 15.9593 17.1215C15.8596 17.1215 15.74 17.1215 15.6204 17.1215C12.59 17.1215 10.1179 19.6158 10.1179 22.7088C10.1179 22.8285 10.1179 22.9283 10.1179 23.048C7.3667 21.751 5.43286 18.9174 5.43286 15.6249C5.43286 11.1351 9.04136 7.48333 13.4673 7.48333Z" fill="#005E4E"/>
<path fill-rule="evenodd" clip-rule="evenodd" d="M21.9182 0C25.447 0 28.2979 2.89344 28.2979 6.46534C28.2979 8.02181 27.7596 9.4386 26.8425 10.5561C25.6663 9.27896 23.9916 8.48077 22.1176 8.48077C20.1439 8.48077 18.3695 9.35878 17.1933 10.7756C16.1765 9.63815 15.5585 8.12159 15.5585 6.46534C15.5585 2.89344 18.4094 0 21.9182 0Z" fill="#005E4E"/>
<path fill-rule="evenodd" clip-rule="evenodd" d="M22.1058 8.91933C25.4551 8.91933 28.1665 11.6531 28.1665 15.0454C28.1665 18.4378 25.4551 21.1915 22.1058 21.1915C21.6871 21.1915 21.2884 21.1516 20.8896 21.0718C20.2716 19.0364 18.5371 17.4999 16.4239 17.1806C16.1846 16.5221 16.0451 15.8037 16.0451 15.0454C16.0451 11.6531 18.7564 8.91933 22.1058 8.91933Z" fill="#005E4E"/>
<path d="M15.6362 27.8561C18.4329 27.8561 20.7001 25.5511 20.7001 22.7078C20.7001 19.8644 18.4329 17.5595 15.6362 17.5595C12.8395 17.5595 10.5724 19.8644 10.5724 22.7078C10.5724 25.5511 12.8395 27.8561 15.6362 27.8561Z" fill="#005E4E"/>
<path fill-rule="evenodd" clip-rule="evenodd" d="M25.2983 22.4892H22.7465L22.8661 28.0965L20.075 26.4003L19.3373 27.438L22.587 29.7527C22.4903 30.6255 22.3872 31.4246 22.2765 32.159L22.2544 32.1072C21.1778 38.2533 18.925 40.6878 16.5725 42.8429C25.4442 40.9871 24.0486 44.559 21.3373 46.6542C23.7466 50.3731 26.8849 47.8524 29.4523 45.7903C30.4116 45.0198 31.2912 44.3133 32.0232 44.0202C27.9782 43.5092 26.5054 37.6748 25.6429 34.2579L25.6037 34.1027L25.5772 34.1401C25.5708 34.0939 25.5643 34.0482 25.5575 34.0031C25.1986 31.5487 25.1787 28.8548 25.3581 26.121L30.2426 20.5536L29.1461 19.7155L25.2983 23.926V22.4892ZM25.5772 34.1401L24.0487 36.2977L22.2765 32.159C21.3831 38.0905 20.0044 39.7966 17.6627 41.9451C26.5344 40.0694 26.4148 42.7233 23.7034 44.8186C25.8215 48.088 26.3063 47.3033 27.0917 46.0321C27.5335 45.3171 28.0703 44.4482 29.0464 44.0603C26.1244 43.7063 25.9309 39.8851 25.7664 36.636C25.7206 35.7305 25.677 34.8693 25.5772 34.1401Z" fill="#005E4E"/>
<path d="M56.0543 14.6826H62.5695C65.5383 14.6826 67.691 15.104 69.0274 15.9469C70.3734 16.7804 71.0464 18.111 71.0464 19.9389C71.0464 21.1795 70.7505 22.1977 70.1586 22.9932C69.5763 23.7887 68.7983 24.267 67.8246 24.428V24.5701C69.1515 24.8637 70.1061 25.413 70.6884 26.218C71.2803 27.023 71.5762 28.0932 71.5762 29.4286C71.5762 31.3227 70.8841 32.8002 69.4999 33.8609C68.1253 34.9216 66.2543 35.452 63.8868 35.452H56.0543V14.6826ZM60.4932 22.908H63.0707C64.2735 22.908 65.1422 22.7233 65.6767 22.3539C66.2209 21.9846 66.4929 21.3737 66.4929 20.5213C66.4929 19.7258 66.197 19.1575 65.6051 18.8166C65.0228 18.4662 64.0969 18.291 62.8272 18.291H60.4932V22.908ZM60.4932 26.4027V31.8152H63.3857C64.6076 31.8152 65.5097 31.5832 66.092 31.1191C66.6743 30.655 66.9655 29.9447 66.9655 28.9882C66.9655 27.2645 65.7245 26.4027 63.2425 26.4027H60.4932Z" fill="#005E4E"/>
<path d="M82.0435 22.3539C81.1175 22.3539 80.392 22.6475 79.867 23.2347C79.3419 23.8124 79.0412 24.6364 78.9649 25.7066H85.0934C85.0743 24.6364 84.7927 23.8124 84.2486 23.2347C83.7045 22.6475 82.9694 22.3539 82.0435 22.3539ZM82.6592 35.7361C80.0817 35.7361 78.0675 35.0305 76.6165 33.6194C75.1655 32.2083 74.44 30.2099 74.44 27.6244C74.44 24.9631 75.1082 22.908 76.4447 21.4589C77.7907 20.0004 79.6474 19.2712 82.0148 19.2712C84.2772 19.2712 86.0385 19.9105 87.2986 21.189C88.5586 22.4676 89.1887 24.2339 89.1887 26.4879V28.5904H78.8646C78.9124 29.8216 79.2799 30.7829 79.9672 31.4743C80.6545 32.1656 81.6187 32.5113 82.8596 32.5113C83.8238 32.5113 84.7354 32.4119 85.5946 32.213C86.4537 32.0141 87.3511 31.6968 88.2866 31.2612V34.6138C87.5229 34.9927 86.7067 35.272 85.838 35.452C84.9693 35.6414 83.9097 35.7361 82.6592 35.7361Z" fill="#005E4E"/>
<path d="M101.675 19.2712C102.267 19.2712 102.758 19.3138 103.15 19.399L102.82 23.462C102.467 23.3673 102.038 23.3199 101.532 23.3199C100.138 23.3199 99.0498 23.6751 98.267 24.3854C97.4938 25.0957 97.1071 26.0901 97.1071 27.3687V35.452H92.7398V19.5695H96.0475L96.6919 22.2403H96.9067C97.4031 21.35 98.0713 20.635 98.9114 20.0951C99.761 19.5458 100.682 19.2712 101.675 19.2712Z" fill="#005E4E"/>
<path d="M117.225 30.7355C117.225 32.3645 116.653 33.6052 115.507 34.4576C114.371 35.3099 112.667 35.7361 110.395 35.7361C109.231 35.7361 108.238 35.6556 107.417 35.4946C106.596 35.3431 105.827 35.1158 105.112 34.8127V31.2328C105.923 31.6116 106.835 31.9289 107.846 32.1846C108.868 32.4403 109.765 32.5681 110.538 32.5681C112.123 32.5681 112.915 32.1135 112.915 31.2043C112.915 30.8634 112.81 30.5887 112.6 30.3804C112.39 30.1626 112.028 29.9211 111.512 29.6559C110.997 29.3812 110.309 29.064 109.45 28.7041C108.219 28.1926 107.312 27.7191 106.73 27.2835C106.157 26.8478 105.737 26.3506 105.469 25.7918C105.212 25.2236 105.083 24.5275 105.083 23.7035C105.083 22.2924 105.632 21.2032 106.73 20.4361C107.837 19.6595 109.402 19.2712 111.426 19.2712C113.355 19.2712 115.23 19.6879 117.054 20.5213L115.736 23.6467C114.934 23.3057 114.185 23.0263 113.488 22.8085C112.791 22.5907 112.08 22.4818 111.355 22.4818C110.066 22.4818 109.422 22.8275 109.422 23.5188C109.422 23.9071 109.627 24.2433 110.037 24.5275C110.457 24.8116 111.369 25.233 112.772 25.7918C114.023 26.2938 114.939 26.7626 115.522 27.1982C116.104 27.6339 116.533 28.1358 116.81 28.7041C117.087 29.2723 117.225 29.9495 117.225 30.7355Z" fill="#005E4E"/>
<path d="M127.263 22.3539C126.337 22.3539 125.612 22.6475 125.087 23.2347C124.562 23.8124 124.261 24.6364 124.185 25.7066H130.313C130.294 24.6364 130.012 23.8124 129.468 23.2347C128.924 22.6475 128.189 22.3539 127.263 22.3539ZM127.879 35.7361C125.301 35.7361 123.287 35.0305 121.836 33.6194C120.385 32.2083 119.66 30.2099 119.66 27.6244C119.66 24.9631 120.328 22.908 121.664 21.4589C123.01 20.0004 124.867 19.2712 127.235 19.2712C129.497 19.2712 131.258 19.9105 132.518 21.189C133.778 22.4676 134.408 24.2339 134.408 26.4879V28.5904H124.084C124.132 29.8216 124.5 30.7829 125.187 31.4743C125.874 32.1656 126.838 32.5113 128.079 32.5113C129.043 32.5113 129.955 32.4119 130.814 32.213C131.673 32.0141 132.571 31.6968 133.506 31.2612V34.6138C132.743 34.9927 131.926 35.272 131.058 35.452C130.189 35.6414 129.129 35.7361 127.879 35.7361Z" fill="#005E4E"/>
<path d="M152.293 35.452H147.926V26.1754C147.926 25.0294 147.73 24.1723 147.339 23.6041C146.957 23.0263 146.351 22.7375 145.52 22.7375C144.403 22.7375 143.592 23.1447 143.086 23.9592C142.58 24.7737 142.327 26.1138 142.327 27.9796V35.452H137.96V19.5695H141.296L141.883 21.601H142.126C142.556 20.8717 143.176 20.3035 143.988 19.8963C144.799 19.4795 145.73 19.2712 146.78 19.2712C149.176 19.2712 150.799 20.0478 151.649 21.601H152.035C152.465 20.8623 153.095 20.2893 153.925 19.8821C154.765 19.4748 155.71 19.2712 156.761 19.2712C158.574 19.2712 159.944 19.7353 160.87 20.6634C161.806 21.5821 162.273 23.0595 162.273 25.0957V35.452H157.892V26.1754C157.892 25.0294 157.696 24.1723 157.305 23.6041C156.923 23.0263 156.317 22.7375 155.486 22.7375C154.417 22.7375 153.615 23.1163 153.08 23.874C152.555 24.6316 152.293 25.8344 152.293 27.4823V35.452Z" fill="#005E4E"/>
<path d="M166.583 15.4639C166.583 14.0528 167.376 13.3472 168.96 13.3472C170.545 13.3472 171.337 14.0528 171.337 15.4639C171.337 16.1364 171.137 16.662 170.736 17.0408C170.345 17.4102 169.753 17.5949 168.96 17.5949C167.376 17.5949 166.583 16.8846 166.583 15.4639ZM171.137 35.452H166.77V19.5695H171.137V35.452Z" fill="#005E4E"/>
<path d="M118.428 40.0417H119.101V45.7822C119.101 45.9557 119.135 46.0737 119.203 46.1362C119.272 46.1988 119.391 46.23 119.561 46.23C119.584 46.23 119.617 46.2286 119.66 46.2258C119.705 46.2229 119.75 46.2187 119.796 46.213L119.894 46.6054C119.843 46.6281 119.786 46.6508 119.723 46.6736C119.661 46.6963 119.596 46.7162 119.527 46.7333C119.459 46.7532 119.391 46.7674 119.323 46.776C119.255 46.7873 119.191 46.793 119.131 46.793C118.909 46.793 118.736 46.7219 118.611 46.5798C118.489 46.4376 118.428 46.2258 118.428 45.9443V40.0417Z" fill="#005E4E"/>
<path d="M120.67 42.1187H121.343V46.7248H120.67V42.1187ZM120.602 40.626C120.602 40.5236 120.639 40.4298 120.712 40.3445C120.786 40.2592 120.884 40.2165 121.007 40.2165C121.126 40.2165 121.221 40.2592 121.292 40.3445C121.366 40.4298 121.403 40.5236 121.403 40.626C121.403 40.7425 121.363 40.8406 121.284 40.9202C121.204 40.997 121.112 41.0354 121.007 41.0354C120.899 41.0354 120.803 40.997 120.721 40.9202C120.641 40.8406 120.602 40.7425 120.602 40.626Z" fill="#005E4E"/>
<path d="M122.737 42.7115C122.737 42.5267 122.724 42.3291 122.699 42.1187H123.351C123.377 42.2438 123.394 42.3803 123.402 42.5281C123.598 42.4002 123.837 42.2879 124.118 42.1912C124.403 42.0945 124.685 42.0462 124.967 42.0462C125.402 42.0462 125.745 42.1727 125.998 42.4257C126.254 42.6788 126.382 43.0385 126.382 43.5048V46.7248H125.708V43.5602C125.708 43.2844 125.636 43.0555 125.491 42.8736C125.346 42.6888 125.141 42.5963 124.877 42.5963C124.613 42.5963 124.351 42.6361 124.093 42.7158C123.834 42.7954 123.607 42.8977 123.411 43.0228V46.7248H122.737V42.7115Z" fill="#005E4E"/>
<path d="M129.528 46.2215C129.804 46.2215 130.028 46.1988 130.201 46.1533C130.378 46.1049 130.574 45.9926 130.79 45.8163V42.8053C130.466 42.6916 130.112 42.6347 129.728 42.6347C129.194 42.6347 128.809 42.8181 128.573 43.1849C128.34 43.5488 128.223 43.9611 128.223 44.4217C128.223 44.9136 128.34 45.3373 128.573 45.6927C128.809 46.0452 129.127 46.2215 129.528 46.2215ZM129.609 42.0462C130.004 42.0462 130.398 42.1244 130.79 42.2807V40.0417H131.463V45.2704C131.463 45.6486 131.48 45.9358 131.514 46.132C131.548 46.3253 131.597 46.5229 131.659 46.7248H131.028C130.991 46.6764 130.957 46.6196 130.926 46.5542C130.895 46.4859 130.869 46.4149 130.849 46.3409C130.645 46.4746 130.436 46.584 130.223 46.6693C130.012 46.7518 129.745 46.793 129.421 46.793C128.844 46.793 128.383 46.5755 128.036 46.1405C127.689 45.7055 127.516 45.1468 127.516 44.4644C127.516 43.7735 127.706 43.1977 128.087 42.7371C128.471 42.2765 128.978 42.0462 129.609 42.0462Z" fill="#005E4E"/>
<path d="M133.488 42.1187V45.2449C133.488 45.5548 133.565 45.7908 133.718 45.9528C133.875 46.1149 134.078 46.1959 134.328 46.1959C134.652 46.1959 134.937 46.1519 135.185 46.0637C135.432 45.9727 135.629 45.8547 135.777 45.7097V42.1187H136.451V46.1234C136.451 46.3082 136.471 46.5087 136.51 46.7248H135.824C135.801 46.5627 135.784 46.4035 135.773 46.2471C135.619 46.3637 135.433 46.4689 135.214 46.5627C134.996 46.6565 134.811 46.7191 134.66 46.7504C134.51 46.7845 134.37 46.8015 134.243 46.8015C133.748 46.8015 133.386 46.6665 133.156 46.3964C132.928 46.1234 132.815 45.768 132.815 45.3301V42.1187H133.488Z" fill="#005E4E"/>
<path d="M137.913 42.7115C137.913 42.5267 137.9 42.3291 137.874 42.1187H138.527C138.552 42.2438 138.569 42.3803 138.578 42.5281C138.774 42.4002 139.013 42.2879 139.294 42.1912C139.578 42.0945 139.861 42.0462 140.142 42.0462C140.577 42.0462 140.921 42.1727 141.174 42.4257C141.43 42.6788 141.557 43.0385 141.557 43.5048V46.7248H140.884V43.5602C140.884 43.2844 140.811 43.0555 140.667 42.8736C140.522 42.6888 140.317 42.5963 140.053 42.5963C139.788 42.5963 139.527 42.6361 139.268 42.7158C139.01 42.7954 138.782 42.8977 138.586 43.0228V46.7248H137.913V42.7115Z" fill="#005E4E"/>
<path d="M144.639 44.7928C144.816 44.7928 144.965 44.7643 145.087 44.7075C145.212 44.6478 145.314 44.5639 145.394 44.4558C145.474 44.3478 145.53 44.2184 145.565 44.0677C145.601 43.917 145.62 43.7493 145.62 43.5645C145.62 43.4252 145.6 43.2915 145.56 43.1636C145.52 43.0328 145.459 42.9191 145.377 42.8224C145.297 42.7257 145.195 42.6489 145.07 42.5921C144.945 42.5324 144.797 42.5025 144.627 42.5025C144.419 42.5025 144.247 42.5366 144.111 42.6049C143.974 42.6703 143.865 42.757 143.783 42.865C143.7 42.9731 143.642 43.0953 143.608 43.2318C143.574 43.3683 143.557 43.5062 143.557 43.6455C143.557 43.7877 143.578 43.927 143.621 44.0635C143.666 44.1999 143.733 44.3222 143.821 44.4303C143.912 44.5383 144.024 44.6264 144.158 44.6947C144.294 44.7601 144.455 44.7928 144.639 44.7928ZM143.646 46.5371C143.518 46.6764 143.419 46.8158 143.348 46.9551C143.28 47.0944 143.246 47.2295 143.246 47.3602C143.246 47.5337 143.282 47.6758 143.356 47.7867C143.43 47.9005 143.525 47.99 143.642 48.0554C143.759 48.1208 143.889 48.1663 144.034 48.1919C144.179 48.2175 144.324 48.2303 144.469 48.2303C144.549 48.2303 144.644 48.2246 144.755 48.2132C144.868 48.2047 144.985 48.1891 145.104 48.1663C145.226 48.1436 145.346 48.1123 145.462 48.0725C145.582 48.0355 145.688 47.9886 145.782 47.9317C145.876 47.8749 145.951 47.8066 146.008 47.727C146.068 47.6503 146.097 47.5607 146.097 47.4583C146.097 47.3588 146.066 47.2693 146.004 47.1896C145.944 47.1129 145.863 47.0446 145.761 46.9849C145.661 46.9252 145.542 46.8712 145.403 46.8229C145.266 46.7745 145.032 46.7191 144.699 46.6565C144.477 46.6224 144.304 46.5997 144.179 46.5883C144.057 46.5741 143.949 46.5641 143.855 46.5584C143.761 46.5499 143.692 46.5428 143.646 46.5371ZM146.669 42.6774C146.555 42.6745 146.45 42.6802 146.353 42.6944C146.257 42.7087 146.161 42.73 146.068 42.7584C146.139 42.8665 146.198 42.9901 146.247 43.1295C146.298 43.2659 146.323 43.4266 146.323 43.6114C146.323 43.89 146.275 44.1317 146.178 44.3364C146.082 44.5383 145.952 44.7061 145.79 44.8397C145.628 44.9705 145.442 45.0686 145.232 45.134C145.022 45.1965 144.803 45.2278 144.576 45.2278C144.382 45.2278 144.182 45.2036 143.974 45.1553C143.929 45.161 143.871 45.1766 143.8 45.2022C143.729 45.2278 143.659 45.2619 143.591 45.3046C143.525 45.3472 143.469 45.397 143.42 45.4538C143.372 45.5079 143.348 45.5676 143.348 45.633C143.348 45.7069 143.398 45.7652 143.497 45.8078C143.597 45.8505 143.727 45.8874 143.889 45.9187C144.051 45.9471 144.338 45.9898 144.75 46.0467C145.185 46.1177 145.505 46.1831 145.709 46.2428C145.917 46.2997 146.102 46.3765 146.264 46.4731C146.426 46.5698 146.556 46.6878 146.656 46.8271C146.755 46.9693 146.805 47.1427 146.805 47.3474C146.805 47.5436 146.768 47.7128 146.694 47.855C146.62 47.9971 146.521 48.118 146.396 48.2175C146.274 48.3198 146.131 48.4023 145.969 48.4649C145.807 48.5302 145.637 48.5814 145.458 48.6184C145.279 48.6554 145.097 48.6795 144.912 48.6909C144.73 48.7051 144.557 48.7122 144.392 48.7122C144.131 48.7122 143.891 48.6895 143.672 48.644C143.456 48.5985 143.27 48.5274 143.113 48.4307C142.957 48.3369 142.835 48.2161 142.747 48.0682C142.659 47.9232 142.615 47.7498 142.615 47.5479C142.615 47.4399 142.633 47.3318 142.67 47.2238C142.71 47.1186 142.762 47.0176 142.828 46.921C142.896 46.8243 142.973 46.7347 143.058 46.6523C143.146 46.5698 143.238 46.4959 143.335 46.4305C143.258 46.3935 143.183 46.3551 143.109 46.3153C143.035 46.2727 142.968 46.2258 142.909 46.1746C142.852 46.1206 142.805 46.0594 142.768 45.9912C142.731 45.9201 142.713 45.8377 142.713 45.7438C142.713 45.6415 142.743 45.5477 142.802 45.4624C142.865 45.3771 142.94 45.3003 143.028 45.2321C143.119 45.1638 143.214 45.107 143.314 45.0615C143.413 45.016 143.501 44.9833 143.578 44.9634C143.339 44.8269 143.159 44.6535 143.037 44.443C142.914 44.2298 142.853 43.964 142.853 43.6455C142.853 43.3868 142.905 43.1579 143.007 42.9589C143.112 42.757 143.248 42.5892 143.416 42.4556C143.584 42.322 143.776 42.221 143.992 42.1528C144.208 42.0817 144.428 42.0462 144.652 42.0462C144.848 42.0462 145.044 42.0732 145.241 42.1272C145.437 42.1812 145.62 42.2623 145.79 42.3703C146.012 42.285 146.227 42.2253 146.434 42.1912C146.644 42.1571 146.843 42.14 147.031 42.14L146.954 42.6859L146.669 42.6774Z" fill="#005E4E"/>
<path d="M147.747 42.1187H148.421V46.7248H147.747V42.1187ZM147.679 40.626C147.679 40.5236 147.716 40.4298 147.79 40.3445C147.864 40.2592 147.962 40.2165 148.084 40.2165C148.203 40.2165 148.298 40.2592 148.369 40.3445C148.443 40.4298 148.48 40.5236 148.48 40.626C148.48 40.7425 148.44 40.8406 148.361 40.9202C148.281 40.997 148.189 41.0354 148.084 41.0354C147.976 41.0354 147.881 40.997 147.798 40.9202C147.719 40.8406 147.679 40.7425 147.679 40.626Z" fill="#005E4E"/>
<path d="M149.776 40.0417H150.45V42.4727C150.603 42.3817 150.805 42.2879 151.055 42.1912C151.308 42.0945 151.594 42.0462 151.912 42.0462C152.395 42.0462 152.764 42.1855 153.02 42.4641C153.279 42.7428 153.408 43.1195 153.408 43.5943V46.7248H152.735L152.739 43.6327C152.739 43.3057 152.658 43.0513 152.496 42.8693C152.334 42.6873 152.081 42.5963 151.737 42.5963C151.521 42.5963 151.299 42.6333 151.072 42.7072C150.845 42.7812 150.637 42.8679 150.45 42.9674V46.7248H149.776V40.0417Z" fill="#005E4E"/>
<path d="M155.305 42.1187V45.2449C155.305 45.5548 155.382 45.7908 155.535 45.9528C155.691 46.1149 155.895 46.1959 156.145 46.1959C156.469 46.1959 156.754 46.1519 157.002 46.0637C157.249 45.9727 157.446 45.8547 157.594 45.7097V42.1187H158.268V46.1234C158.268 46.3082 158.288 46.5087 158.327 46.7248H157.641C157.618 46.5627 157.601 46.4035 157.59 46.2471C157.436 46.3637 157.25 46.4689 157.031 46.5627C156.813 46.6565 156.628 46.7191 156.477 46.7504C156.327 46.7845 156.187 46.8015 156.059 46.8015C155.565 46.8015 155.203 46.6665 154.972 46.3964C154.745 46.1234 154.631 45.768 154.631 45.3301V42.1187H155.305Z" fill="#005E4E"/>
<path d="M159.15 42.1187H159.815V40.9544H160.489V42.1187H161.61L161.537 42.703H160.489V45.3643C160.489 45.6287 160.531 45.8405 160.616 45.9997C160.705 46.159 160.841 46.2386 161.026 46.2386C161.125 46.2386 161.25 46.2244 161.401 46.1959C161.551 46.1646 161.651 46.1419 161.699 46.1277L161.75 46.712C161.693 46.7233 161.573 46.7404 161.388 46.7632C161.206 46.7887 161.063 46.8015 160.957 46.8015C160.597 46.8015 160.315 46.712 160.113 46.5329C159.914 46.3537 159.815 46.0225 159.815 45.5391V42.703H159.15V42.1187Z" fill="#005E4E"/>
<path d="M165.348 44.3108C164.962 44.3194 164.629 44.3549 164.351 44.4175C164.072 44.4772 163.843 44.5596 163.664 44.6648C163.485 44.77 163.353 44.8937 163.268 45.0359C163.183 45.178 163.14 45.3344 163.14 45.505C163.14 45.7467 163.208 45.9244 163.345 46.0381C163.481 46.1519 163.67 46.2087 163.912 46.2087C164.042 46.2087 164.172 46.1945 164.299 46.1661C164.43 46.1376 164.557 46.0993 164.679 46.0509C164.801 46.0026 164.918 45.9457 165.028 45.8803C165.142 45.8121 165.249 45.7396 165.348 45.6628V44.3108ZM162.667 42.6902C162.772 42.5935 162.894 42.5054 163.033 42.4257C163.176 42.3461 163.325 42.2779 163.481 42.221C163.64 42.1642 163.804 42.1215 163.971 42.0931C164.142 42.0618 164.311 42.0462 164.479 42.0462C164.95 42.0462 165.325 42.1642 165.604 42.4002C165.882 42.6362 166.022 42.9645 166.022 43.3854V45.4368C166.022 45.6045 166.027 45.7424 166.039 45.8505C166.05 45.9585 166.07 46.0438 166.098 46.1064C166.13 46.1689 166.169 46.213 166.218 46.2386C166.269 46.2613 166.333 46.2727 166.41 46.2727C166.506 46.2727 166.604 46.2627 166.704 46.2428L166.81 46.5542C166.734 46.6281 166.624 46.6878 166.482 46.7333C166.343 46.7788 166.192 46.8015 166.03 46.8015C165.851 46.8015 165.706 46.739 165.595 46.6139C165.487 46.4859 165.418 46.304 165.386 46.068C165.145 46.2926 164.881 46.4717 164.594 46.6054C164.309 46.7361 164.004 46.8015 163.677 46.8015C163.498 46.8015 163.33 46.7759 163.174 46.7248C163.021 46.6707 162.887 46.594 162.773 46.4945C162.66 46.395 162.57 46.2727 162.505 46.1277C162.442 45.9827 162.411 45.8178 162.411 45.633C162.411 45.3856 162.458 45.1709 162.552 44.989C162.648 44.807 162.775 44.652 162.931 44.5241C163.087 44.3961 163.266 44.2924 163.468 44.2127C163.673 44.1331 163.883 44.0706 164.099 44.0251C164.318 43.9796 164.535 43.9497 164.751 43.9355C164.967 43.9185 165.166 43.9099 165.348 43.9099V43.4365C165.348 43.1351 165.27 42.9162 165.114 42.7797C164.957 42.6433 164.739 42.575 164.457 42.575C164.298 42.575 164.149 42.5935 164.01 42.6305C163.873 42.6674 163.745 42.7143 163.626 42.7712C163.507 42.8281 163.397 42.8906 163.298 42.9589C163.198 43.0271 163.109 43.0925 163.029 43.155L162.667 42.6902Z" fill="#005E4E"/>
<path d="M167.693 42.7115C167.693 42.5267 167.68 42.3291 167.654 42.1187H168.306C168.332 42.2438 168.349 42.3803 168.358 42.5281C168.554 42.4002 168.792 42.2879 169.074 42.1912C169.358 42.0945 169.641 42.0462 169.922 42.0462C170.357 42.0462 170.701 42.1727 170.954 42.4257C171.209 42.6788 171.337 43.0385 171.337 43.5048V46.7248H170.664V43.5602C170.664 43.2844 170.591 43.0555 170.446 42.8736C170.301 42.6888 170.097 42.5963 169.833 42.5963C169.568 42.5963 169.307 42.6361 169.048 42.7158C168.79 42.7954 168.562 42.8977 168.366 43.0228V46.7248H167.693V42.7115Z" fill="#005E4E"/>
<path d="M17.6627 41.9451C26.5344 40.0694 26.4148 42.7233 23.7034 44.8186C25.8215 48.088 26.3063 47.3033 27.0917 46.0321C27.5335 45.3171 28.0703 44.4482 29.0464 44.0603C26.1244 43.7063 25.9309 39.8851 25.7664 36.636C25.7206 35.7305 25.677 34.8693 25.5772 34.1401L24.0487 36.2977L22.2765 32.159C21.3831 38.0905 20.0044 39.7966 17.6627 41.9451Z" fill="#005E4E"/>
</svg>
