<svg width="175" height="63" viewBox="0 0 175 63" fill="none" xmlns="http://www.w3.org/2000/svg">
<path d="M51.6644 21.8685H53.2344V35.2501C53.2344 35.6544 53.3139 35.9294 53.4729 36.0753C53.6319 36.2211 53.9101 36.294 54.3076 36.294C54.3606 36.294 54.4368 36.2907 54.5361 36.284C54.6421 36.2774 54.7481 36.2675 54.8541 36.2542L55.0827 37.1688C54.9634 37.2219 54.8309 37.2749 54.6852 37.3279C54.5394 37.3809 54.3871 37.4273 54.2281 37.4671C54.0691 37.5135 53.9101 37.5466 53.7511 37.5665C53.5921 37.593 53.4431 37.6063 53.304 37.6063C52.7873 37.6063 52.3832 37.4406 52.0917 37.1092C51.8068 36.7778 51.6644 36.284 51.6644 35.6279V21.8685Z" fill="white"/>
<path d="M56.8912 26.7101H58.4612V37.4472H56.8912V26.7101ZM56.7322 23.2305C56.7322 22.9919 56.8183 22.7732 56.9905 22.5744C57.1628 22.3755 57.3913 22.2761 57.6762 22.2761C57.9544 22.2761 58.1763 22.3755 58.3419 22.5744C58.5142 22.7732 58.6003 22.9919 58.6003 23.2305C58.6003 23.5023 58.5075 23.7309 58.3221 23.9165C58.1366 24.0955 57.9213 24.1849 57.6762 24.1849C57.4244 24.1849 57.2025 24.0955 57.0104 23.9165C56.8249 23.7309 56.7322 23.5023 56.7322 23.2305Z" fill="white"/>
<path d="M61.7105 28.092C61.7105 27.6612 61.6807 27.2006 61.6211 26.7101H63.1414C63.201 27.0018 63.2408 27.3199 63.2606 27.6645C63.7177 27.3663 64.2742 27.1045 64.93 26.8792C65.5925 26.6538 66.2516 26.5411 66.9075 26.5411C67.921 26.5411 68.7226 26.8361 69.3122 27.4259C69.9084 28.0158 70.2065 28.8542 70.2065 29.9412V37.4472H68.6365V30.0704C68.6365 29.4275 68.4675 28.894 68.1297 28.4698C67.7918 28.039 67.3149 27.8236 66.6988 27.8236C66.0827 27.8236 65.4732 27.9164 64.8704 28.102C64.2676 28.2876 63.7376 28.5262 63.2805 28.8178V37.4472H61.7105V28.092Z" fill="white"/>
<path d="M77.5398 36.2741C78.1824 36.2741 78.7057 36.2211 79.1098 36.115C79.5206 36.0023 79.9777 35.7405 80.4811 35.3296V28.3108C79.7259 28.0456 78.9012 27.9131 78.0069 27.9131C76.7614 27.9131 75.8638 28.3406 75.314 29.1956C74.7708 30.0439 74.4992 31.005 74.4992 32.0787C74.4992 33.2253 74.7708 34.2128 75.314 35.0413C75.8638 35.8632 76.6058 36.2741 77.5398 36.2741ZM77.7286 26.5411C78.6494 26.5411 79.5669 26.7234 80.4811 27.0879V21.8685H82.0511V34.0571C82.0511 34.9386 82.0909 35.608 82.1704 36.0653C82.2499 36.516 82.3625 36.9766 82.5082 37.4472H81.0376C80.9515 37.3345 80.872 37.202 80.7991 37.0495C80.7262 36.8905 80.6666 36.7248 80.6202 36.5525C80.1433 36.864 79.6564 37.1191 79.1595 37.318C78.6693 37.5102 78.0466 37.6063 77.2914 37.6063C75.9466 37.6063 74.8701 37.0993 74.0619 36.0852C73.2538 35.0711 72.8497 33.7688 72.8497 32.1781C72.8497 30.5675 73.2935 29.2254 74.1812 28.1517C75.0755 27.078 76.258 26.5411 77.7286 26.5411Z" fill="white"/>
<path d="M86.7711 26.7101V33.9974C86.7711 34.7199 86.95 35.27 87.3077 35.6478C87.6721 36.0255 88.1457 36.2144 88.7287 36.2144C89.4839 36.2144 90.1496 36.1117 90.726 35.9062C91.3023 35.6942 91.7627 35.4191 92.1072 35.0811V26.7101H93.6772V36.0454C93.6772 36.4762 93.7236 36.9435 93.8163 37.4472H92.2165C92.1635 37.0694 92.1237 36.6983 92.0972 36.3337C91.7395 36.6055 91.3056 36.8507 90.7955 37.0694C90.2854 37.2881 89.8548 37.434 89.5037 37.5069C89.1526 37.5864 88.828 37.6262 88.5299 37.6262C87.3773 37.6262 86.5326 37.3113 85.996 36.6817C85.4661 36.0454 85.2011 35.2169 85.2011 34.1963V26.7101H86.7711Z" fill="white"/>
<path d="M97.0855 28.092C97.0855 27.6612 97.0557 27.2006 96.9961 26.7101H98.5164C98.576 27.0018 98.6158 27.3199 98.6357 27.6645C99.0928 27.3663 99.6492 27.1045 100.305 26.8792C100.967 26.6538 101.627 26.5411 102.282 26.5411C103.296 26.5411 104.098 26.8361 104.687 27.4259C105.283 28.0158 105.581 28.8542 105.581 29.9412V37.4472H104.011V30.0704C104.011 29.4275 103.843 28.894 103.505 28.4698C103.167 28.039 102.69 27.8236 102.074 27.8236C101.458 27.8236 100.848 27.9164 100.245 28.102C99.6426 28.2876 99.1126 28.5262 98.6555 28.8178V37.4472H97.0855V28.092Z" fill="white"/>
<path d="M112.766 32.9436C113.177 32.9436 113.524 32.8773 113.809 32.7448C114.101 32.6056 114.339 32.4101 114.525 32.1582C114.71 31.9064 114.843 31.6048 114.922 31.2535C115.008 30.9022 115.051 30.5112 115.051 30.0804C115.051 29.7556 115.005 29.4441 114.912 29.1459C114.819 28.841 114.677 28.5759 114.485 28.3505C114.299 28.1252 114.061 27.9462 113.769 27.8137C113.478 27.6745 113.133 27.6049 112.736 27.6049C112.252 27.6049 111.852 27.6844 111.534 27.8435C111.216 27.9959 110.961 28.1981 110.768 28.4499C110.576 28.7018 110.441 28.9868 110.361 29.3049C110.282 29.6231 110.242 29.9445 110.242 30.2693C110.242 30.6007 110.292 30.9254 110.391 31.2436C110.497 31.5617 110.653 31.8467 110.858 32.0986C111.07 32.3504 111.332 32.5559 111.643 32.7149C111.961 32.8674 112.335 32.9436 112.766 32.9436ZM110.451 37.0098C110.152 37.3345 109.921 37.6593 109.755 37.9841C109.596 38.3088 109.516 38.6236 109.516 38.9285C109.516 39.3328 109.603 39.6642 109.775 39.9227C109.947 40.1878 110.169 40.3966 110.441 40.549C110.712 40.7015 111.017 40.8075 111.355 40.8672C111.693 40.9268 112.03 40.9566 112.368 40.9566C112.554 40.9566 112.776 40.9434 113.034 40.9169C113.299 40.897 113.571 40.8605 113.849 40.8075C114.134 40.7545 114.412 40.6816 114.684 40.5888C114.962 40.5026 115.21 40.3933 115.429 40.2607C115.647 40.1282 115.823 39.9691 115.956 39.7835C116.095 39.6046 116.164 39.3958 116.164 39.1572C116.164 38.9252 116.091 38.7164 115.946 38.5309C115.806 38.3519 115.618 38.1928 115.379 38.0537C115.147 37.9145 114.869 37.7885 114.544 37.6759C114.226 37.5632 113.68 37.434 112.905 37.2881C112.388 37.2086 111.984 37.1556 111.693 37.1291C111.408 37.0959 111.156 37.0727 110.937 37.0595C110.719 37.0396 110.557 37.023 110.451 37.0098ZM117.496 28.0125C117.231 28.0059 116.986 28.0191 116.76 28.0523C116.535 28.0854 116.313 28.1351 116.095 28.2014C116.26 28.4533 116.399 28.7416 116.512 29.0663C116.631 29.3845 116.691 29.7589 116.691 30.1897C116.691 30.8393 116.578 31.4026 116.353 31.8798C116.128 32.3504 115.826 32.7415 115.449 33.053C115.071 33.3578 114.637 33.5865 114.147 33.7389C113.657 33.8848 113.147 33.9577 112.617 33.9577C112.166 33.9577 111.699 33.9013 111.216 33.7887C111.11 33.8019 110.974 33.8384 110.808 33.898C110.643 33.9577 110.48 34.0372 110.321 34.1366C110.169 34.236 110.036 34.352 109.924 34.4846C109.811 34.6105 109.755 34.7497 109.755 34.9021C109.755 35.0744 109.871 35.2103 110.103 35.3097C110.335 35.4092 110.639 35.4953 111.017 35.5682C111.395 35.6345 112.064 35.7339 113.024 35.8665C114.038 36.0322 114.783 36.1846 115.26 36.3238C115.744 36.4564 116.174 36.6353 116.552 36.8606C116.929 37.086 117.234 37.361 117.466 37.6858C117.698 38.0172 117.814 38.4215 117.814 38.8987C117.814 39.356 117.728 39.7504 117.555 40.0818C117.383 40.4132 117.151 40.6948 116.86 40.9268C116.575 41.1654 116.244 41.3576 115.866 41.5034C115.488 41.6559 115.091 41.7752 114.674 41.8613C114.256 41.9475 113.832 42.0038 113.402 42.0304C112.978 42.0635 112.574 42.0801 112.189 42.0801C111.58 42.0801 111.02 42.027 110.51 41.921C110.007 41.8149 109.573 41.6492 109.208 41.4239C108.844 41.2052 108.559 40.9235 108.354 40.5789C108.148 40.2408 108.046 39.8365 108.046 39.366C108.046 39.1141 108.089 38.8622 108.175 38.6104C108.268 38.3652 108.39 38.1299 108.543 37.9045C108.702 37.6792 108.881 37.4704 109.079 37.2782C109.285 37.086 109.5 36.9137 109.725 36.7612C109.546 36.6751 109.371 36.5856 109.198 36.4928C109.026 36.3934 108.871 36.284 108.731 36.1647C108.599 36.0388 108.49 35.8963 108.404 35.7372C108.317 35.5715 108.274 35.3793 108.274 35.1606C108.274 34.922 108.344 34.7033 108.483 34.5045C108.629 34.3056 108.804 34.1267 109.01 33.9676C109.222 33.8085 109.444 33.676 109.675 33.5699C109.907 33.4639 110.113 33.3877 110.292 33.3413C109.735 33.0231 109.314 32.6188 109.03 32.1284C108.745 31.6313 108.602 31.0116 108.602 30.2693C108.602 29.6661 108.722 29.1326 108.96 28.6687C109.205 28.1981 109.523 27.807 109.914 27.4955C110.305 27.184 110.752 26.9487 111.255 26.7897C111.759 26.624 112.272 26.5411 112.796 26.5411C113.253 26.5411 113.71 26.6041 114.167 26.73C114.624 26.856 115.051 27.0448 115.449 27.2967C115.965 27.0979 116.466 26.9587 116.949 26.8792C117.439 26.7996 117.903 26.7598 118.34 26.7598L118.161 28.0324L117.496 28.0125Z" fill="white"/>
<path d="M120.01 26.7101H121.58V37.4472H120.01V26.7101ZM119.851 23.2305C119.851 22.9919 119.937 22.7732 120.109 22.5744C120.281 22.3755 120.51 22.2761 120.795 22.2761C121.073 22.2761 121.295 22.3755 121.46 22.5744C121.633 22.7732 121.719 22.9919 121.719 23.2305C121.719 23.5023 121.626 23.7309 121.441 23.9165C121.255 24.0955 121.04 24.1849 120.795 24.1849C120.543 24.1849 120.321 24.0955 120.129 23.9165C119.943 23.7309 119.851 23.5023 119.851 23.2305Z" fill="white"/>
<path d="M124.74 21.8685H126.31V27.5353C126.667 27.3232 127.138 27.1045 127.721 26.8792C128.31 26.6538 128.976 26.5411 129.718 26.5411C130.844 26.5411 131.705 26.8659 132.302 27.5154C132.904 28.1649 133.206 29.0431 133.206 30.15V37.4472H131.636L131.646 30.2395C131.646 29.4773 131.457 28.8841 131.079 28.4599C130.702 28.0357 130.112 27.8236 129.311 27.8236C128.807 27.8236 128.29 27.9098 127.76 28.0821C127.23 28.2544 126.747 28.4566 126.31 28.6885V37.4472H124.74V21.8685Z" fill="white"/>
<path d="M137.628 26.7101V33.9974C137.628 34.7199 137.807 35.27 138.164 35.6478C138.529 36.0255 139.002 36.2144 139.585 36.2144C140.34 36.2144 141.006 36.1117 141.583 35.9062C142.159 35.6942 142.619 35.4191 142.964 35.0811V26.7101H144.534V36.0454C144.534 36.4762 144.58 36.9435 144.673 37.4472H143.073C143.02 37.0694 142.98 36.6983 142.954 36.3337C142.596 36.6055 142.162 36.8507 141.652 37.0694C141.142 37.2881 140.711 37.434 140.36 37.5069C140.009 37.5864 139.685 37.6262 139.386 37.6262C138.234 37.6262 137.389 37.3113 136.853 36.6817C136.323 36.0454 136.058 35.2169 136.058 34.1963V26.7101H137.628Z" fill="white"/>
<path d="M146.591 26.7101H148.141V23.996H149.711V26.7101H152.324L152.155 28.0722H149.711V34.2758C149.711 34.8922 149.81 35.386 150.009 35.7571C150.214 36.1283 150.532 36.3139 150.963 36.3139C151.195 36.3139 151.486 36.2807 151.837 36.2144C152.188 36.1415 152.42 36.0885 152.533 36.0554L152.652 37.4174C152.52 37.4439 152.238 37.4837 151.807 37.5367C151.384 37.5963 151.049 37.6262 150.804 37.6262C149.963 37.6262 149.307 37.4174 148.836 36.9998C148.373 36.5823 148.141 35.8101 148.141 34.6834V28.0722H146.591V26.7101Z" fill="white"/>
<path d="M161.039 31.8202C160.138 31.8401 159.363 31.9229 158.714 32.0687C158.064 32.2079 157.531 32.4001 157.114 32.6454C156.696 32.8906 156.388 33.1789 156.19 33.5103C155.991 33.8417 155.892 34.2062 155.892 34.6039C155.892 35.1672 156.051 35.5815 156.368 35.8466C156.686 36.1117 157.127 36.2443 157.69 36.2443C157.995 36.2443 158.296 36.2111 158.594 36.1448C158.899 36.0786 159.194 35.9891 159.479 35.8764C159.764 35.7637 160.035 35.6312 160.294 35.4787C160.558 35.3197 160.807 35.1507 161.039 34.9717V31.8202ZM154.789 28.0423C155.034 27.817 155.319 27.6115 155.643 27.4259C155.974 27.2404 156.322 27.0813 156.686 26.9487C157.057 26.8162 157.438 26.7168 157.829 26.6505C158.227 26.5776 158.621 26.5411 159.012 26.5411C160.111 26.5411 160.986 26.8162 161.635 27.3663C162.284 27.9164 162.609 28.6819 162.609 29.6628V34.4448C162.609 34.8358 162.622 35.1573 162.649 35.4092C162.675 35.661 162.721 35.8598 162.788 36.0057C162.861 36.1515 162.953 36.2542 163.066 36.3139C163.185 36.3669 163.334 36.3934 163.513 36.3934C163.738 36.3934 163.967 36.3702 164.199 36.3238L164.447 37.0495C164.268 37.2219 164.013 37.361 163.682 37.4671C163.357 37.5731 163.006 37.6262 162.629 37.6262C162.211 37.6262 161.873 37.4804 161.615 37.1887C161.363 36.8905 161.201 36.4663 161.128 35.9162C160.565 36.4398 159.949 36.8573 159.28 37.1688C158.618 37.4737 157.905 37.6262 157.144 37.6262C156.726 37.6262 156.335 37.5665 155.971 37.4472C155.613 37.3213 155.302 37.1423 155.037 36.9104C154.772 36.6784 154.563 36.3934 154.411 36.0554C154.265 35.7173 154.192 35.3329 154.192 34.9021C154.192 34.3255 154.302 33.8251 154.52 33.4009C154.745 32.9767 155.04 32.6155 155.405 32.3173C155.769 32.019 156.186 31.7771 156.657 31.5915C157.134 31.406 157.624 31.2601 158.127 31.1541C158.637 31.048 159.144 30.9785 159.648 30.9453C160.151 30.9056 160.615 30.8857 161.039 30.8857V29.7821C161.039 29.0796 160.857 28.5692 160.492 28.2511C160.128 27.933 159.618 27.7739 158.962 27.7739C158.591 27.7739 158.243 27.817 157.919 27.9031C157.601 27.9893 157.303 28.0987 157.024 28.2312C156.746 28.3638 156.491 28.5096 156.259 28.6687C156.027 28.8277 155.819 28.9802 155.633 29.126L154.789 28.0423Z" fill="white"/>
<path d="M166.504 28.092C166.504 27.6612 166.474 27.2006 166.415 26.7101H167.935C167.995 27.0018 168.034 27.3199 168.054 27.6645C168.511 27.3663 169.068 27.1045 169.724 26.8792C170.386 26.6538 171.045 26.5411 171.701 26.5411C172.715 26.5411 173.516 26.8361 174.106 27.4259C174.702 28.0158 175 28.8542 175 29.9412V37.4472H173.43V30.0704C173.43 29.4275 173.261 28.894 172.923 28.4698C172.585 28.039 172.108 27.8236 171.492 27.8236C170.876 27.8236 170.267 27.9164 169.664 28.102C169.061 28.2876 168.531 28.5262 168.074 28.8178V37.4472H166.504V28.092Z" fill="white"/>
<path fill-rule="evenodd" clip-rule="evenodd" d="M35.0682 45.5086C34.8489 44.9898 33.9916 43.4732 26.3361 49.739C26.3361 49.739 22.8671 51.1159 19.9365 50.7767C19.9365 50.7767 17.4245 49.0207 15.5903 49.2402C13.7362 49.4597 24.5218 46.7458 22.6677 44.1716C21.2124 42.1562 11.9021 45.6483 8.69229 47.0451C7.6556 47.4841 2.87085 53.1313 2.1332 53.5903C1.37562 54.0492 0 54.7477 0 54.7477C0 54.7477 5.00405 56.8828 7.0575 62.8293C7.0575 62.8293 7.71541 62.0112 6.85814 59.5967C5.98094 57.1622 13.2577 55.6456 16.8264 55.9649C20.4149 56.2642 24.2427 55.7254 28.2898 52.7123C32.3369 49.6991 35.3473 45.9676 35.0682 45.5086Z" fill="white"/>
<path d="M31.8082 16.3146C33.5478 16.3146 34.9581 14.8851 34.9581 13.1218C34.9581 11.3585 33.5478 9.92905 31.8082 9.92905C30.0685 9.92905 28.6582 11.3585 28.6582 13.1218C28.6582 14.8851 30.0685 16.3146 31.8082 16.3146Z" fill="white"/>
<path fill-rule="evenodd" clip-rule="evenodd" d="M38.3225 14.9374C42.1703 14.9374 45.3003 18.1102 45.3003 22.0213C45.3003 25.9325 42.1703 29.1053 38.3225 29.1053C36.8672 29.1053 35.5115 28.6663 34.415 27.888C34.6742 27.3892 34.8137 26.8105 34.8137 26.2118C34.8137 24.2363 33.2786 22.6399 31.3448 22.5801C31.3448 22.4005 31.3248 22.2009 31.3248 22.0213C31.3248 18.1102 34.4549 14.9374 38.3225 14.9374Z" fill="white"/>
<path d="M31.2087 29.404C32.9484 29.404 34.3586 27.9745 34.3586 26.2112C34.3586 24.4479 32.9484 23.0184 31.2087 23.0184C29.469 23.0184 28.0587 24.4479 28.0587 26.2112C28.0587 27.9745 29.469 29.404 31.2087 29.404Z" fill="white"/>
<path fill-rule="evenodd" clip-rule="evenodd" d="M13.4672 8.31268C14.0853 8.31268 14.6634 8.39249 15.2416 8.51222C15.4609 9.82924 16.059 11.0066 16.9163 11.9444C16.1188 13.042 15.6403 14.3989 15.6403 15.8755C15.6403 16.6139 15.74 17.3123 15.9593 17.9508C15.8596 17.9508 15.74 17.9508 15.6204 17.9508C12.59 17.9508 10.1179 20.4452 10.1179 23.5382C10.1179 23.6579 10.1179 23.7577 10.1179 23.8774C7.3667 22.5803 5.43286 19.7468 5.43286 16.4542C5.43286 11.9644 9.04136 8.31268 13.4672 8.31268Z" fill="white"/>
<path fill-rule="evenodd" clip-rule="evenodd" d="M21.9182 0.829346C25.447 0.829346 28.2979 3.72279 28.2979 7.29469C28.2979 8.85116 27.7596 10.2679 26.8425 11.3854C25.6663 10.1083 23.9916 9.31012 22.1176 9.31012C20.1439 9.31012 18.3695 10.1881 17.1933 11.6049C16.1765 10.4675 15.5585 8.95093 15.5585 7.29469C15.5585 3.72279 18.4094 0.829346 21.9182 0.829346Z" fill="white"/>
<path fill-rule="evenodd" clip-rule="evenodd" d="M22.1058 9.74868C25.4551 9.74868 28.1665 12.4825 28.1665 15.8748C28.1665 19.2671 25.4551 22.0209 22.1058 22.0209C21.6871 22.0209 21.2884 21.981 20.8896 21.9011C20.2716 19.8657 18.5371 18.3292 16.4239 18.01C16.1846 17.3514 16.0451 16.6331 16.0451 15.8748C16.0451 12.4825 18.7564 9.74868 22.1058 9.74868Z" fill="white"/>
<path d="M15.6362 28.6855C18.4329 28.6855 20.7001 26.3805 20.7001 23.5371C20.7001 20.6938 18.4329 18.3888 15.6362 18.3888C12.8395 18.3888 10.5724 20.6938 10.5724 23.5371C10.5724 26.3805 12.8395 28.6855 15.6362 28.6855Z" fill="white"/>
<path fill-rule="evenodd" clip-rule="evenodd" d="M25.2983 23.3186H22.7465L22.8661 28.9258L20.075 27.2297L19.3373 28.2673L22.587 30.5821C22.4903 31.4548 22.3872 32.254 22.2765 32.9883L22.2544 32.9365C21.1778 39.0826 18.925 41.5171 16.5725 43.6722C25.4442 41.8164 24.0486 45.3883 21.3373 47.4836C23.7466 51.2025 26.8849 48.6818 29.4523 46.6196C30.4116 45.8491 31.2912 45.1426 32.0232 44.8495C27.9782 44.3385 26.5054 38.5042 25.6429 35.0872L25.6037 34.932L25.5772 34.9695C25.5708 34.9233 25.5643 34.8776 25.5575 34.8325C25.1986 32.378 25.1787 29.6841 25.3581 26.9503L30.2426 21.3829L29.1461 20.5448L25.2983 24.7553V23.3186ZM25.5772 34.9695L24.0486 37.127L22.2765 32.9883C21.3831 38.9198 20.0044 40.6259 17.6627 42.7744C26.5344 40.8987 26.4148 43.5527 23.7034 45.6479C25.8215 48.9174 26.3063 48.1326 27.0917 46.8615C27.5335 46.1465 28.0703 45.2776 29.0464 44.8896C26.1244 44.5356 25.9309 40.7145 25.7664 37.4654C25.7206 36.5598 25.677 35.6987 25.5772 34.9695Z" fill="white"/>
<path d="M17.6627 42.7744C26.5344 40.8987 26.4148 43.5527 23.7034 45.6479C25.8215 48.9174 26.3063 48.1326 27.0917 46.8615C27.5335 46.1465 28.0703 45.2776 29.0464 44.8896C26.1244 44.5356 25.9309 40.7145 25.7664 37.4654C25.7206 36.5598 25.677 35.6987 25.5772 34.9695L24.0486 37.127L22.2765 32.9883C21.3831 38.9198 20.0044 40.6259 17.6627 42.7744Z" fill="white"/>
</svg>
