<svg width="175" height="63" viewBox="0 0 175 63" fill="none" xmlns="http://www.w3.org/2000/svg">
<path d="M51.6644 21.9254H53.2344V35.307C53.2344 35.7113 53.3139 35.9863 53.4729 36.1321C53.6319 36.278 53.9101 36.3509 54.3076 36.3509C54.3606 36.3509 54.4368 36.3475 54.5361 36.3409C54.6421 36.3343 54.7481 36.3243 54.8541 36.3111L55.0827 37.2257C54.9634 37.2788 54.8309 37.3318 54.6852 37.3848C54.5394 37.4378 54.3871 37.4842 54.2281 37.524C54.0691 37.5704 53.9101 37.6035 53.7511 37.6234C53.5921 37.6499 53.4431 37.6632 53.304 37.6632C52.7873 37.6632 52.3832 37.4975 52.0917 37.1661C51.8068 36.8347 51.6644 36.3409 51.6644 35.6848V21.9254Z" fill="#005E4E"/>
<path d="M56.8912 26.767H58.4612V37.5041H56.8912V26.767ZM56.7322 23.2874C56.7322 23.0488 56.8183 22.8301 56.9905 22.6313C57.1628 22.4324 57.3913 22.333 57.6762 22.333C57.9544 22.333 58.1763 22.4324 58.3419 22.6313C58.5142 22.8301 58.6003 23.0488 58.6003 23.2874C58.6003 23.5592 58.5075 23.7878 58.3221 23.9734C58.1366 24.1524 57.9213 24.2418 57.6762 24.2418C57.4244 24.2418 57.2025 24.1524 57.0104 23.9734C56.8249 23.7878 56.7322 23.5592 56.7322 23.2874Z" fill="#005E4E"/>
<path d="M61.7105 28.1489C61.7105 27.7181 61.6807 27.2575 61.6211 26.767H63.1414C63.201 27.0586 63.2408 27.3768 63.2606 27.7214C63.7177 27.4232 64.2742 27.1614 64.93 26.936C65.5925 26.7107 66.2516 26.598 66.9075 26.598C67.921 26.598 68.7226 26.893 69.3122 27.4828C69.9084 28.0727 70.2065 28.9111 70.2065 29.9981V37.5041H68.6365V30.1273C68.6365 29.4844 68.4675 28.9509 68.1297 28.5267C67.7918 28.0959 67.3149 27.8805 66.6988 27.8805C66.0827 27.8805 65.4732 27.9733 64.8704 28.1589C64.2676 28.3444 63.7376 28.583 63.2805 28.8747V37.5041H61.7105V28.1489Z" fill="#005E4E"/>
<path d="M77.5398 36.331C78.1824 36.331 78.7057 36.278 79.1098 36.1719C79.5206 36.0592 79.9777 35.7974 80.4811 35.3865V28.3676C79.7259 28.1025 78.9012 27.97 78.0069 27.97C76.7614 27.97 75.8638 28.3975 75.314 29.2525C74.7708 30.1008 74.4992 31.0619 74.4992 32.1356C74.4992 33.2822 74.7708 34.2697 75.314 35.0982C75.8638 35.92 76.6058 36.331 77.5398 36.331ZM77.7286 26.598C78.6494 26.598 79.5669 26.7803 80.4811 27.1448V21.9254H82.0511V34.114C82.0511 34.9955 82.0909 35.6649 82.1704 36.1222C82.2499 36.5729 82.3625 37.0335 82.5082 37.5041H81.0376C80.9515 37.3914 80.872 37.2589 80.7991 37.1064C80.7262 36.9474 80.6666 36.7817 80.6202 36.6093C80.1433 36.9208 79.6564 37.176 79.1595 37.3749C78.6693 37.5671 78.0466 37.6632 77.2914 37.6632C75.9466 37.6632 74.8701 37.1561 74.0619 36.1421C73.2538 35.128 72.8497 33.8257 72.8497 32.235C72.8497 30.6244 73.2935 29.2823 74.1812 28.2086C75.0755 27.1349 76.258 26.598 77.7286 26.598Z" fill="#005E4E"/>
<path d="M86.7711 26.767V34.0543C86.7711 34.7767 86.95 35.3269 87.3077 35.7046C87.6721 36.0824 88.1457 36.2713 88.7287 36.2713C89.4839 36.2713 90.1496 36.1686 90.726 35.9631C91.3023 35.751 91.7627 35.476 92.1072 35.138V26.767H93.6772V36.1023C93.6772 36.5331 93.7236 37.0004 93.8163 37.5041H92.2165C92.1635 37.1263 92.1237 36.7551 92.0972 36.3906C91.7395 36.6624 91.3056 36.9076 90.7955 37.1263C90.2854 37.345 89.8548 37.4908 89.5037 37.5637C89.1526 37.6433 88.828 37.683 88.5299 37.683C87.3773 37.683 86.5326 37.3682 85.996 36.7386C85.4661 36.1023 85.2011 35.2738 85.2011 34.2531V26.767H86.7711Z" fill="#005E4E"/>
<path d="M97.0855 28.1489C97.0855 27.7181 97.0557 27.2575 96.9961 26.767H98.5164C98.576 27.0586 98.6158 27.3768 98.6357 27.7214C99.0928 27.4232 99.6492 27.1614 100.305 26.936C100.967 26.7107 101.627 26.598 102.282 26.598C103.296 26.598 104.098 26.893 104.687 27.4828C105.283 28.0727 105.581 28.9111 105.581 29.9981V37.5041H104.011V30.1273C104.011 29.4844 103.843 28.9509 103.505 28.5267C103.167 28.0959 102.69 27.8805 102.074 27.8805C101.458 27.8805 100.848 27.9733 100.245 28.1589C99.6426 28.3444 99.1126 28.583 98.6555 28.8747V37.5041H97.0855V28.1489Z" fill="#005E4E"/>
<path d="M112.766 33.0005C113.177 33.0005 113.524 32.9342 113.809 32.8017C114.101 32.6625 114.339 32.4669 114.525 32.2151C114.71 31.9632 114.843 31.6617 114.922 31.3104C115.008 30.9591 115.051 30.5681 115.051 30.1373C115.051 29.8125 115.005 29.501 114.912 29.2027C114.819 28.8979 114.677 28.6328 114.485 28.4074C114.299 28.1821 114.061 28.0031 113.769 27.8706C113.478 27.7314 113.133 27.6618 112.736 27.6618C112.252 27.6618 111.852 27.7413 111.534 27.9004C111.216 28.0528 110.961 28.255 110.768 28.5068C110.576 28.7587 110.441 29.0437 110.361 29.3618C110.282 29.68 110.242 30.0014 110.242 30.3262C110.242 30.6576 110.292 30.9823 110.391 31.3005C110.497 31.6186 110.653 31.9036 110.858 32.1554C111.07 32.4073 111.332 32.6128 111.643 32.7718C111.961 32.9243 112.335 33.0005 112.766 33.0005ZM110.451 37.0667C110.152 37.3914 109.921 37.7162 109.755 38.0409C109.596 38.3657 109.516 38.6805 109.516 38.9854C109.516 39.3897 109.603 39.7211 109.775 39.9796C109.947 40.2447 110.169 40.4535 110.441 40.6059C110.712 40.7584 111.017 40.8644 111.355 40.9241C111.693 40.9837 112.03 41.0135 112.368 41.0135C112.554 41.0135 112.776 41.0003 113.034 40.9738C113.299 40.9539 113.571 40.9174 113.849 40.8644C114.134 40.8114 114.412 40.7385 114.684 40.6457C114.962 40.5595 115.21 40.4502 115.429 40.3176C115.647 40.185 115.823 40.026 115.956 39.8404C116.095 39.6615 116.164 39.4527 116.164 39.2141C116.164 38.9821 116.091 38.7733 115.946 38.5877C115.806 38.4088 115.618 38.2497 115.379 38.1105C115.147 37.9714 114.869 37.8454 114.544 37.7328C114.226 37.6201 113.68 37.4908 112.905 37.345C112.388 37.2655 111.984 37.2125 111.693 37.186C111.408 37.1528 111.156 37.1296 110.937 37.1164C110.719 37.0965 110.557 37.0799 110.451 37.0667ZM117.496 28.0694C117.231 28.0628 116.986 28.076 116.76 28.1092C116.535 28.1423 116.313 28.192 116.095 28.2583C116.26 28.5101 116.399 28.7985 116.512 29.1232C116.631 29.4413 116.691 29.8158 116.691 30.2466C116.691 30.8962 116.578 31.4595 116.353 31.9367C116.128 32.4073 115.826 32.7983 115.449 33.1099C115.071 33.4147 114.637 33.6434 114.147 33.7958C113.657 33.9416 113.147 34.0145 112.617 34.0145C112.166 34.0145 111.699 33.9582 111.216 33.8455C111.11 33.8588 110.974 33.8952 110.808 33.9549C110.643 34.0145 110.48 34.0941 110.321 34.1935C110.169 34.2929 110.036 34.4089 109.924 34.5415C109.811 34.6674 109.755 34.8066 109.755 34.959C109.755 35.1313 109.871 35.2672 110.103 35.3666C110.335 35.466 110.639 35.5522 111.017 35.6251C111.395 35.6914 112.064 35.7908 113.024 35.9234C114.038 36.0891 114.783 36.2415 115.26 36.3807C115.744 36.5132 116.174 36.6922 116.552 36.9175C116.929 37.1429 117.234 37.4179 117.466 37.7427C117.698 38.0741 117.814 38.4784 117.814 38.9556C117.814 39.4129 117.728 39.8073 117.555 40.1387C117.383 40.47 117.151 40.7517 116.86 40.9837C116.575 41.2223 116.244 41.4145 115.866 41.5603C115.488 41.7128 115.091 41.8321 114.674 41.9182C114.256 42.0044 113.832 42.0607 113.402 42.0872C112.978 42.1204 112.574 42.1369 112.189 42.1369C111.58 42.1369 111.02 42.0839 110.51 41.9779C110.007 41.8718 109.573 41.7061 109.208 41.4808C108.844 41.2621 108.559 40.9804 108.354 40.6357C108.148 40.2977 108.046 39.8934 108.046 39.4229C108.046 39.171 108.089 38.9191 108.175 38.6673C108.268 38.422 108.39 38.1868 108.543 37.9614C108.702 37.7361 108.881 37.5273 109.079 37.3351C109.285 37.1429 109.5 36.9706 109.725 36.8181C109.546 36.732 109.371 36.6425 109.198 36.5497C109.026 36.4503 108.871 36.3409 108.731 36.2216C108.599 36.0957 108.49 35.9532 108.404 35.7941C108.317 35.6284 108.274 35.4362 108.274 35.2175C108.274 34.9789 108.344 34.7602 108.483 34.5613C108.629 34.3625 108.804 34.1836 109.01 34.0245C109.222 33.8654 109.444 33.7329 109.675 33.6268C109.907 33.5208 110.113 33.4446 110.292 33.3982C109.735 33.08 109.314 32.6757 109.03 32.1853C108.745 31.6882 108.602 31.0685 108.602 30.3262C108.602 29.723 108.722 29.1895 108.96 28.7255C109.205 28.255 109.523 27.8639 109.914 27.5524C110.305 27.2409 110.752 27.0056 111.255 26.8466C111.759 26.6809 112.272 26.598 112.796 26.598C113.253 26.598 113.71 26.661 114.167 26.7869C114.624 26.9128 115.051 27.1017 115.449 27.3536C115.965 27.1548 116.466 27.0156 116.949 26.936C117.439 26.8565 117.903 26.8167 118.34 26.8167L118.161 28.0893L117.496 28.0694Z" fill="#005E4E"/>
<path d="M120.01 26.767H121.58V37.5041H120.01V26.767ZM119.851 23.2874C119.851 23.0488 119.937 22.8301 120.109 22.6313C120.281 22.4324 120.51 22.333 120.795 22.333C121.073 22.333 121.295 22.4324 121.46 22.6313C121.633 22.8301 121.719 23.0488 121.719 23.2874C121.719 23.5592 121.626 23.7878 121.441 23.9734C121.255 24.1524 121.04 24.2418 120.795 24.2418C120.543 24.2418 120.321 24.1524 120.129 23.9734C119.943 23.7878 119.851 23.5592 119.851 23.2874Z" fill="#005E4E"/>
<path d="M124.74 21.9254H126.31V27.5922C126.667 27.3801 127.138 27.1614 127.721 26.936C128.31 26.7107 128.976 26.598 129.718 26.598C130.844 26.598 131.705 26.9228 132.302 27.5723C132.904 28.2218 133.206 29.1 133.206 30.2069V37.5041H131.636L131.646 30.2963C131.646 29.5341 131.457 28.941 131.079 28.5168C130.702 28.0926 130.112 27.8805 129.311 27.8805C128.807 27.8805 128.29 27.9667 127.76 28.139C127.23 28.3113 126.747 28.5135 126.31 28.7454V37.5041H124.74V21.9254Z" fill="#005E4E"/>
<path d="M137.628 26.767V34.0543C137.628 34.7767 137.807 35.3269 138.164 35.7046C138.529 36.0824 139.002 36.2713 139.585 36.2713C140.34 36.2713 141.006 36.1686 141.583 35.9631C142.159 35.751 142.619 35.476 142.964 35.138V26.767H144.534V36.1023C144.534 36.5331 144.58 37.0004 144.673 37.5041H143.073C143.02 37.1263 142.98 36.7551 142.954 36.3906C142.596 36.6624 142.162 36.9076 141.652 37.1263C141.142 37.345 140.711 37.4908 140.36 37.5637C140.009 37.6433 139.685 37.683 139.386 37.683C138.234 37.683 137.389 37.3682 136.853 36.7386C136.323 36.1023 136.058 35.2738 136.058 34.2531V26.767H137.628Z" fill="#005E4E"/>
<path d="M146.591 26.767H148.141V24.0529H149.711V26.767H152.324L152.155 28.129H149.711V34.3327C149.711 34.9491 149.81 35.4428 150.009 35.814C150.214 36.1852 150.532 36.3707 150.963 36.3707C151.195 36.3707 151.486 36.3376 151.837 36.2713C152.188 36.1984 152.42 36.1454 152.533 36.1123L152.652 37.4743C152.52 37.5008 152.238 37.5405 151.807 37.5936C151.384 37.6532 151.049 37.683 150.804 37.683C149.963 37.683 149.307 37.4743 148.836 37.0567C148.373 36.6392 148.141 35.867 148.141 34.7403V28.129H146.591V26.767Z" fill="#005E4E"/>
<path d="M161.039 31.8771C160.138 31.897 159.363 31.9798 158.714 32.1256C158.064 32.2648 157.531 32.457 157.114 32.7022C156.696 32.9475 156.388 33.2358 156.19 33.5672C155.991 33.8986 155.892 34.2631 155.892 34.6608C155.892 35.2241 156.051 35.6384 156.368 35.9035C156.686 36.1686 157.127 36.3011 157.69 36.3011C157.995 36.3011 158.296 36.268 158.594 36.2017C158.899 36.1355 159.194 36.046 159.479 35.9333C159.764 35.8206 160.035 35.6881 160.294 35.5356C160.558 35.3766 160.807 35.2076 161.039 35.0286V31.8771ZM154.789 28.0992C155.034 27.8739 155.319 27.6684 155.643 27.4828C155.974 27.2973 156.322 27.1382 156.686 27.0056C157.057 26.8731 157.438 26.7737 157.829 26.7074C158.227 26.6345 158.621 26.598 159.012 26.598C160.111 26.598 160.986 26.8731 161.635 27.4232C162.284 27.9733 162.609 28.7388 162.609 29.7197V34.5017C162.609 34.8927 162.622 35.2142 162.649 35.466C162.675 35.7179 162.721 35.9167 162.788 36.0625C162.861 36.2084 162.953 36.3111 163.066 36.3707C163.185 36.4238 163.334 36.4503 163.513 36.4503C163.738 36.4503 163.967 36.4271 164.199 36.3807L164.447 37.1064C164.268 37.2788 164.013 37.4179 163.682 37.524C163.357 37.63 163.006 37.683 162.629 37.683C162.211 37.683 161.873 37.5372 161.615 37.2456C161.363 36.9474 161.201 36.5232 161.128 35.9731C160.565 36.4967 159.949 36.9142 159.28 37.2257C158.618 37.5306 157.905 37.683 157.144 37.683C156.726 37.683 156.335 37.6234 155.971 37.5041C155.613 37.3782 155.302 37.1992 155.037 36.9672C154.772 36.7353 154.563 36.4503 154.411 36.1123C154.265 35.7742 154.192 35.3898 154.192 34.959C154.192 34.3824 154.302 33.882 154.52 33.4578C154.745 33.0336 155.04 32.6724 155.405 32.3742C155.769 32.0759 156.186 31.834 156.657 31.6484C157.134 31.4628 157.624 31.317 158.127 31.211C158.637 31.1049 159.144 31.0353 159.648 31.0022C160.151 30.9624 160.615 30.9426 161.039 30.9426V29.839C161.039 29.1365 160.857 28.6261 160.492 28.308C160.128 27.9899 159.618 27.8308 158.962 27.8308C158.591 27.8308 158.243 27.8739 157.919 27.96C157.601 28.0462 157.303 28.1556 157.024 28.2881C156.746 28.4207 156.491 28.5665 156.259 28.7255C156.027 28.8846 155.819 29.0371 155.633 29.1829L154.789 28.0992Z" fill="#005E4E"/>
<path d="M166.504 28.1489C166.504 27.7181 166.474 27.2575 166.415 26.767H167.935C167.995 27.0586 168.034 27.3768 168.054 27.7214C168.511 27.4232 169.068 27.1614 169.724 26.936C170.386 26.7107 171.045 26.598 171.701 26.598C172.715 26.598 173.516 26.893 174.106 27.4828C174.702 28.0727 175 28.9111 175 29.9981V37.5041H173.43V30.1273C173.43 29.4844 173.261 28.9509 172.923 28.5267C172.585 28.0959 172.108 27.8805 171.492 27.8805C170.876 27.8805 170.267 27.9733 169.664 28.1589C169.061 28.3444 168.531 28.583 168.074 28.8747V37.5041H166.504V28.1489Z" fill="#005E4E"/>
<path fill-rule="evenodd" clip-rule="evenodd" d="M35.0682 45.5655C34.8489 45.0467 33.9916 43.5301 26.3361 49.7959C26.3361 49.7959 22.8671 51.1728 19.9365 50.8336C19.9365 50.8336 17.4245 49.0775 15.5903 49.297C13.7362 49.5165 24.5218 46.8027 22.6677 44.2285C21.2124 42.2131 11.9021 45.7052 8.69229 47.102C7.6556 47.541 2.87085 53.1882 2.1332 53.6472C1.37562 54.1061 0 54.8045 0 54.8045C0 54.8045 5.00405 56.9397 7.0575 62.8862C7.0575 62.8862 7.71541 62.0681 6.85814 59.6536C5.98094 57.2191 13.2577 55.7025 16.8264 56.0218C20.4149 56.3211 24.2427 55.7823 28.2898 52.7692C32.3369 49.756 35.3473 46.0245 35.0682 45.5655Z" fill="#005E4E"/>
<path d="M31.8082 16.3715C33.5478 16.3715 34.9581 14.942 34.9581 13.1787C34.9581 11.4154 33.5478 9.98593 31.8082 9.98593C30.0685 9.98593 28.6582 11.4154 28.6582 13.1787C28.6582 14.942 30.0685 16.3715 31.8082 16.3715Z" fill="#005E4E"/>
<path fill-rule="evenodd" clip-rule="evenodd" d="M38.3225 14.9943C42.1703 14.9943 45.3003 18.1671 45.3003 22.0782C45.3003 25.9894 42.1703 29.1622 38.3225 29.1622C36.8672 29.1622 35.5115 28.7232 34.415 27.9449C34.6742 27.4461 34.8137 26.8674 34.8137 26.2687C34.8137 24.2932 33.2786 22.6968 31.3448 22.637C31.3448 22.4574 31.3248 22.2578 31.3248 22.0782C31.3248 18.1671 34.4549 14.9943 38.3225 14.9943Z" fill="#005E4E"/>
<path d="M31.2087 29.4608C32.9484 29.4608 34.3586 28.0314 34.3586 26.2681C34.3586 24.5048 32.9484 23.0753 31.2087 23.0753C29.469 23.0753 28.0587 24.5048 28.0587 26.2681C28.0587 28.0314 29.469 29.4608 31.2087 29.4608Z" fill="#005E4E"/>
<path fill-rule="evenodd" clip-rule="evenodd" d="M13.4672 8.36956C14.0853 8.36956 14.6634 8.44938 15.2416 8.56911C15.4609 9.88612 16.059 11.0635 16.9163 12.0013C16.1188 13.0988 15.6403 14.4558 15.6403 15.9324C15.6403 16.6707 15.74 17.3692 15.9593 18.0077C15.8596 18.0077 15.74 18.0077 15.6204 18.0077C12.59 18.0077 10.1179 20.5021 10.1179 23.595C10.1179 23.7148 10.1179 23.8145 10.1179 23.9343C7.3667 22.6372 5.43286 19.8036 5.43286 16.5111C5.43286 12.0213 9.04136 8.36956 13.4672 8.36956Z" fill="#005E4E"/>
<path fill-rule="evenodd" clip-rule="evenodd" d="M21.9182 0.88623C25.447 0.88623 28.2979 3.77967 28.2979 7.35157C28.2979 8.90804 27.7596 10.3248 26.8425 11.4423C25.6663 10.1652 23.9916 9.367 22.1176 9.367C20.1439 9.367 18.3695 10.245 17.1933 11.6618C16.1765 10.5244 15.5585 9.00782 15.5585 7.35157C15.5585 3.77967 18.4094 0.88623 21.9182 0.88623Z" fill="#005E4E"/>
<path fill-rule="evenodd" clip-rule="evenodd" d="M22.1058 9.80556C25.4551 9.80556 28.1665 12.5394 28.1665 15.9317C28.1665 19.324 25.4551 22.0777 22.1058 22.0777C21.6871 22.0777 21.2884 22.0378 20.8896 21.958C20.2716 19.9226 18.5371 18.3861 16.4239 18.0668C16.1846 17.4083 16.0451 16.69 16.0451 15.9317C16.0451 12.5394 18.7564 9.80556 22.1058 9.80556Z" fill="#005E4E"/>
<path d="M15.6362 28.7423C18.4329 28.7423 20.7001 26.4374 20.7001 23.594C20.7001 20.7507 18.4329 18.4457 15.6362 18.4457C12.8395 18.4457 10.5724 20.7507 10.5724 23.594C10.5724 26.4374 12.8395 28.7423 15.6362 28.7423Z" fill="#005E4E"/>
<path fill-rule="evenodd" clip-rule="evenodd" d="M25.2983 23.3754H22.7465L22.8661 28.9827L20.075 27.2866L19.3373 28.3242L22.587 30.639C22.4903 31.5117 22.3872 32.3109 22.2765 33.0452L22.2544 32.9934C21.1778 39.1395 18.925 41.574 16.5725 43.7291C25.4442 41.8733 24.0486 45.4452 21.3373 47.5405C23.7466 51.2594 26.8849 48.7387 29.4523 46.6765C30.4116 45.906 31.2912 45.1995 32.0232 44.9064C27.9782 44.3954 26.5054 38.5611 25.6429 35.1441L25.6037 34.9889L25.5772 35.0264C25.5708 34.9801 25.5643 34.9345 25.5575 34.8893C25.1986 32.4349 25.1787 29.741 25.3581 27.0072L30.2426 21.4398L29.1461 20.6017L25.2983 24.8122V23.3754ZM25.5772 35.0264L24.0486 37.1839L22.2765 33.0452C21.3831 38.9767 20.0044 40.6828 17.6627 42.8313C26.5344 40.9556 26.4148 43.6096 23.7034 45.7048C25.8215 48.9743 26.3063 48.1895 27.0917 46.9184C27.5335 46.2034 28.0703 45.3344 29.0464 44.9465C26.1244 44.5925 25.9309 40.7713 25.7664 37.5223C25.7206 36.6167 25.677 35.7556 25.5772 35.0264Z" fill="#005E4E"/>
<path d="M17.6627 42.8313C26.5344 40.9556 26.4148 43.6096 23.7034 45.7048C25.8215 48.9743 26.3063 48.1895 27.0917 46.9184C27.5335 46.2034 28.0703 45.3344 29.0464 44.9465C26.1244 44.5925 25.9309 40.7713 25.7664 37.5223C25.7206 36.6167 25.677 35.7556 25.5772 35.0264L24.0486 37.1839L22.2765 33.0452C21.3831 38.9767 20.0044 40.6828 17.6627 42.8313Z" fill="#005E4E"/>
</svg>
